Montserrat-Thin.ufo
<glyph name="zero" format="2">
  <advance width="652"/>
  <unicode hex="0030"/>
  <outline>
    <contour>
      <point x="326" y="-3" type="curve" smooth="yes"/>
      <point x="485" y="-3"/>
      <point x="593" y="136"/>
      <point x="593" y="350" type="curve" smooth="yes"/>
      <point x="593" y="564"/>
      <point x="485" y="703"/>
      <point x="326" y="703" type="curve" smooth="yes"/>
      <point x="167" y="703"/>
      <point x="59" y="564"/>
      <point x="59" y="350" type="curve" smooth="yes"/>
      <point x="59" y="136"/>
      <point x="167" y="-3"/>
    </contour>
    <contour>
      <point x="326" y="16" type="curve" smooth="yes"/>
      <point x="179" y="16"/>
      <point x="79" y="145"/>
      <point x="79" y="350" type="curve" smooth="yes"/>
      <point x="79" y="555"/>
      <point x="179" y="684"/>
      <point x="326" y="684" type="curve" smooth="yes"/>
      <point x="473" y="684"/>
      <point x="573" y="555"/>
      <point x="573" y="350" type="curve" smooth="yes"/>
      <point x="573" y="145"/>
      <point x="473" y="16"/>
    </contour>
  </outline>
</glyph>
<glyph name="four" format="2">
  <advance width="644"/>
  <unicode hex="0034"/>
  <guideline x="437" y="228" angle="90"/>
  <outline>
    <contour>
      <point x="46" y="208" type="line"/>
      <point x="627" y="208" type="line"/>
      <point x="627" y="227" type="line"/>
      <point x="57" y="227" type="line"/>
      <point x="70" y="223" type="line"/>
      <point x="464" y="700" type="line"/>
      <point x="440" y="700" type="line"/>
      <point x="46" y="223" type="line"/>
    </contour>
    <contour>
      <point x="451" y="0" type="line"/>
      <point x="471" y="0" type="line"/>
      <point x="471" y="410" type="line"/>
      <point x="451" y="410" type="line"/>
      <point x="451" y="227" type="line"/>
      <point x="451" y="208" type="line"/>
    </contour>
  </outline>
</glyph>
<glyph name="J" format="2">
  <advance width="477"/>
  <unicode hex="004A"/>
  <anchor x="209" y="700" name="top"/>
  <outline>
    <contour>
      <point x="178" y="-3" type="curve" smooth="yes"/>
      <point x="292" y="-3"/>
      <point x="350" y="63"/>
      <point x="350" y="194" type="curve" smooth="yes"/>
      <point x="350" y="700" type="line"/>
      <point x="68" y="700" type="line"/>
      <point x="68" y="681" type="line"/>
      <point x="330" y="681" type="line"/>
      <point x="330" y="196" type="line" smooth="yes"/>
      <point x="330" y="74"/>
      <point x="281" y="16"/>
      <point x="179" y="16" type="curve" smooth="yes"/>
      <point x="113" y="16"/>
      <point x="56" y="49"/>
      <point x="18" y="108" type="curve"/>
      <point x="4" y="96" type="line"/>
      <point x="41" y="34"/>
      <point x="107" y="-3"/>
    </contour>
  </outline>
</glyph>
<glyph name="T" format="2">
  <advance width="548"/>
  <unicode hex="0054"/>
  <anchor x="274" y="0" name="bottom"/>
  <anchor x="274" y="356" name="center"/>
  <anchor x="274" y="700" name="top"/>
  <outline>
    <contour>
      <point x="264" y="0" type="line"/>
      <point x="284" y="0" type="line"/>
      <point x="284" y="681" type="line"/>
      <point x="544" y="681" type="line"/>
      <point x="544" y="700" type="line"/>
      <point x="4" y="700" type="line"/>
      <point x="4" y="681" type="line"/>
      <point x="264" y="681" type="line"/>
    </contour>
  </outline>
</glyph>
<glyph name="Y" format="2">
  <advance width="610"/>
  <unicode hex="0059"/>
  <anchor x="305" y="0" name="bottom"/>
  <anchor x="305" y="240" name="center"/>
  <anchor x="305" y="700" name="top"/>
  <outline>
    <contour>
      <point x="295" y="0" type="line"/>
      <point x="315" y="0" type="line"/>
      <point x="315" y="245" type="line"/>
      <point x="310" y="230" type="line"/>
      <point x="600" y="700" type="line"/>
      <point x="577" y="700" type="line"/>
      <point x="301" y="253" type="line"/>
      <point x="309" y="253" type="line"/>
      <point x="33" y="700" type="line"/>
      <point x="10" y="700" type="line"/>
      <point x="300" y="230" type="line"/>
      <point x="295" y="245" type="line"/>
    </contour>
  </outline>
</glyph>
<glyph name="asciicircum" format="2">
  <advance width="562"/>
  <unicode hex="005E"/>
  <outline>
    <contour>
      <point x="99" y="145" type="line"/>
      <point x="121" y="145" type="line"/>
      <point x="285" y="542" type="line"/>
      <point x="277" y="542" type="line"/>
      <point x="441" y="145" type="line"/>
      <point x="463" y="145" type="line"/>
      <point x="292" y="555" type="line"/>
      <point x="270" y="555" type="line"/>
    </contour>
  </outline>
</glyph>
<glyph name="c" format="2">
  <advance width="545"/>
  <unicode hex="0063"/>
  <anchor x="291" y="0" name="bottom"/>
  <anchor x="291" y="517" name="top"/>
  <outline>
    <contour>
      <point x="308" y="-3" type="curve" smooth="yes"/>
      <point x="382" y="-3"/>
      <point x="450" y="25"/>
      <point x="494" y="81" type="curve"/>
      <point x="480" y="96" type="line"/>
      <point x="440" y="42"/>
      <point x="377" y="16"/>
      <point x="308" y="16" type="curve" smooth="yes"/>
      <point x="173" y="16"/>
      <point x="74" y="115"/>
      <point x="74" y="259" type="curve" smooth="yes"/>
      <point x="74" y="402"/>
      <point x="173" y="501"/>
      <point x="308" y="501" type="curve" smooth="yes"/>
      <point x="377" y="501"/>
      <point x="440" y="475"/>
      <point x="480" y="421" type="curve"/>
      <point x="494" y="436" type="line"/>
      <point x="450" y="492"/>
      <point x="382" y="520"/>
      <point x="308" y="520" type="curve" smooth="yes"/>
      <point x="161" y="520"/>
      <point x="54" y="413"/>
      <point x="54" y="259" type="curve" smooth="yes"/>
      <point x="54" y="105"/>
      <point x="161" y="-3"/>
    </contour>
  </outline>
</glyph>
<glyph name="p" format="2">
  <advance width="671"/>
  <unicode hex="0070"/>
  <anchor x="366" y="0" name="bottom"/>
  <anchor x="366" y="517" name="top"/>
  <outline>
    <contour>
      <point x="366" y="-3" type="curve" smooth="yes"/>
      <point x="508" y="-3"/>
      <point x="617" y="105"/>
      <point x="617" y="258" type="curve" smooth="yes"/>
      <point x="617" y="411"/>
      <point x="508" y="520"/>
      <point x="366" y="520" type="curve" smooth="yes"/>
      <point x="224" y="520"/>
      <point x="118" y="411"/>
      <point x="118" y="258" type="curve" smooth="yes"/>
      <point x="118" y="105"/>
      <point x="224" y="-3"/>
    </contour>
    <contour>
      <point x="115" y="-194" type="line"/>
      <point x="135" y="-194" type="line"/>
      <point x="135" y="187" type="line"/>
      <point x="125" y="257" type="line"/>
      <point x="135" y="327" type="line"/>
      <point x="135" y="517" type="line"/>
      <point x="115" y="517" type="line"/>
    </contour>
    <contour>
      <point x="366" y="16" type="curve" smooth="yes"/>
      <point x="234" y="16"/>
      <point x="135" y="115"/>
      <point x="135" y="258" type="curve" smooth="yes"/>
      <point x="135" y="401"/>
      <point x="234" y="501"/>
      <point x="366" y="501" type="curve" smooth="yes"/>
      <point x="498" y="501"/>
      <point x="597" y="401"/>
      <point x="597" y="258" type="curve" smooth="yes"/>
      <point x="597" y="115"/>
      <point x="498" y="16"/>
    </contour>
  </outline>
</glyph>
<glyph name="t" format="2">
  <advance width="388"/>
  <unicode hex="0074"/>
  <anchor x="241" y="0" name="bottom"/>
  <anchor x="171" y="307" name="center"/>
  <anchor x="133" y="630" name="top"/>
  <anchor x="248" y="742" name="topright"/>
  <outline>
    <contour>
      <point x="248" y="-3" type="curve" smooth="yes"/>
      <point x="285" y="-3"/>
      <point x="325" y="9"/>
      <point x="349" y="34" type="curve"/>
      <point x="335" y="48" type="line"/>
      <point x="313" y="27"/>
      <point x="282" y="16"/>
      <point x="249" y="16" type="curve" smooth="yes"/>
      <point x="179" y="16"/>
      <point x="143" y="56"/>
      <point x="143" y="129" type="curve" smooth="yes"/>
      <point x="143" y="630" type="line"/>
      <point x="123" y="630" type="line"/>
      <point x="123" y="124" type="line" smooth="yes"/>
      <point x="123" y="48"/>
      <point x="166" y="-3"/>
    </contour>
    <contour>
      <point x="23" y="498" type="line"/>
      <point x="318" y="498" type="line"/>
      <point x="318" y="517" type="line"/>
      <point x="23" y="517" type="line"/>
    </contour>
  </outline>
</glyph>
<glyph name="w" format="2">
  <advance width="838"/>
  <unicode hex="0077"/>
  <anchor x="419" y="0" name="bottom"/>
  <anchor x="419" y="517" name="top"/>
  <outline>
    <contour>
      <point x="211" y="0" type="line"/>
      <point x="228" y="0" type="line"/>
      <point x="422" y="498" type="line"/>
      <point x="415" y="498" type="line"/>
      <point x="609" y="0" type="line"/>
      <point x="627" y="0" type="line"/>
      <point x="826" y="517" type="line"/>
      <point x="805" y="517" type="line"/>
      <point x="614" y="14" type="line"/>
      <point x="622" y="14" type="line"/>
      <point x="428" y="517" type="line"/>
      <point x="409" y="517" type="line"/>
      <point x="215" y="14" type="line"/>
      <point x="223" y="14" type="line"/>
      <point x="32" y="517" type="line"/>
      <point x="12" y="517" type="line"/>
    </contour>
  </outline>
</glyph>
<glyph name="x" format="2">
  <advance width="498"/>
  <unicode hex="0078"/>
  <outline>
    <contour>
      <point x="28" y="0" type="line"/>
      <point x="53" y="0" type="line"/>
      <point x="251" y="256" type="line"/>
      <point x="246" y="256" type="line"/>
      <point x="444" y="0" type="line"/>
      <point x="470" y="0" type="line"/>
      <point x="256" y="273" type="line"/>
      <point x="255" y="261" type="line"/>
      <point x="455" y="517" type="line"/>
      <point x="431" y="517" type="line"/>
      <point x="244" y="277" type="line"/>
      <point x="252" y="277" type="line"/>
      <point x="65" y="517" type="line"/>
      <point x="40" y="517" type="line"/>
      <point x="238" y="265" type="line"/>
      <point x="239" y="272" type="line"/>
    </contour>
  </outline>
</glyph>
<glyph name="z" format="2">
  <advance width="491"/>
  <unicode hex="007A"/>
  <anchor x="255" y="0" name="bottom"/>
  <anchor x="245" y="517" name="top"/>
  <outline>
    <contour>
      <point x="46" y="0" type="line"/>
      <point x="443" y="0" type="line"/>
      <point x="443" y="19" type="line"/>
      <point x="57" y="19" type="line"/>
      <point x="69" y="13" type="line"/>
      <point x="438" y="502" type="line"/>
      <point x="438" y="517" type="line"/>
      <point x="51" y="517" type="line"/>
      <point x="51" y="498" type="line"/>
      <point x="423" y="498" type="line"/>
      <point x="415" y="504" type="line"/>
      <point x="46" y="15" type="line"/>
    </contour>
  </outline>
</glyph>
<glyph name="multiply" format="2">
  <advance width="560"/>
  <unicode hex="00D7"/>
  <outline>
    <contour>
      <point x="128" y="212" type="line"/>
      <point x="142" y="198" type="line"/>
      <point x="432" y="488" type="line"/>
      <point x="418" y="502" type="line"/>
    </contour>
    <contour>
      <point x="128" y="488" type="line"/>
      <point x="418" y="198" type="line"/>
      <point x="432" y="212" type="line"/>
      <point x="142" y="502" type="line"/>
    </contour>
  </outline>
</glyph>
<glyph name="ae" format="2">
  <advance width="979"/>
  <unicode hex="00E6"/>
  <anchor x="470" y="0" name="bottom"/>
  <anchor x="455" y="517" name="top"/>
  <outline>
    <contour>
      <point x="248" y="-3" type="curve" smooth="yes"/>
      <point x="359" y="-3"/>
      <point x="455" y="54"/>
      <point x="466" y="187" type="curve"/>
      <point x="453" y="189" type="line"/>
      <point x="488" y="61"/>
      <point x="591" y="-3"/>
      <point x="704" y="-3" type="curve" smooth="yes"/>
      <point x="778" y="-3"/>
      <point x="848" y="26"/>
      <point x="894" y="82" type="curve"/>
      <point x="880" y="96" type="line"/>
      <point x="838" y="42"/>
      <point x="773" y="16"/>
      <point x="704" y="16" type="curve" smooth="yes"/>
      <point x="566" y="16"/>
      <point x="465" y="116"/>
      <point x="465" y="259" type="curve" smooth="yes"/>
      <point x="465" y="263" type="line" smooth="yes"/>
      <point x="465" y="399"/>
      <point x="557" y="501"/>
      <point x="685" y="501" type="curve" smooth="yes"/>
      <point x="812" y="501"/>
      <point x="906" y="399"/>
      <point x="906" y="263" type="curve"/>
      <point x="914" y="280" type="line"/>
      <point x="461" y="280" type="line"/>
      <point x="461" y="261" type="line"/>
      <point x="925" y="261" type="line"/>
      <point x="925" y="263"/>
      <point x="925" y="264"/>
      <point x="925" y="266" type="curve" smooth="yes"/>
      <point x="925" y="414"/>
      <point x="821" y="520"/>
      <point x="685" y="520" type="curve" smooth="yes"/>
      <point x="580" y="520"/>
      <point x="496" y="456"/>
      <point x="462" y="359" type="curve"/>
      <point x="465" y="350" type="line"/>
      <point x="458" y="464"/>
      <point x="396" y="520"/>
      <point x="280" y="520" type="curve" smooth="yes"/>
      <point x="202" y="520"/>
      <point x="128" y="490"/>
      <point x="79" y="443" type="curve"/>
      <point x="93" y="429" type="line"/>
      <point x="138" y="472"/>
      <point x="204" y="501"/>
      <point x="281" y="501" type="curve" smooth="yes"/>
      <point x="388" y="501"/>
      <point x="445" y="446"/>
      <point x="445" y="338" type="curve" smooth="yes"/>
      <point x="445" y="202" type="line" smooth="yes"/>
      <point x="445" y="82"/>
      <point x="364" y="16"/>
      <point x="248" y="16" type="curve" smooth="yes"/>
      <point x="145" y="16"/>
      <point x="85" y="65"/>
      <point x="85" y="143" type="curve" smooth="yes"/>
      <point x="85" y="211"/>
      <point x="131" y="261"/>
      <point x="248" y="261" type="curve" smooth="yes"/>
      <point x="451" y="261" type="line"/>
      <point x="451" y="280" type="line"/>
      <point x="249" y="280" type="line" smooth="yes"/>
      <point x="111" y="280"/>
      <point x="65" y="215"/>
      <point x="65" y="142" type="curve" smooth="yes"/>
      <point x="65" y="55"/>
      <point x="132" y="-3"/>
    </contour>
  </outline>
</glyph>
<glyph name="eogonek" format="2">
  <advance width="587"/>
  <unicode hex="0119"/>
  <anchor x="300" y="0" name="bottom"/>
  <anchor x="300" y="517" name="top"/>
  <outline>
    <contour>
      <point x="419" y="-213" type="curve" smooth="yes"/>
      <point x="447" y="-213"/>
      <point x="471" y="-205"/>
      <point x="493" y="-186" type="curve"/>
      <point x="482" y="-171" type="line"/>
      <point x="466" y="-186"/>
      <point x="443" y="-194"/>
      <point x="420" y="-194" type="curve" smooth="yes"/>
      <point x="379" y="-194"/>
      <point x="348" y="-173"/>
      <point x="348" y="-129" type="curve" smooth="yes"/>
      <point x="348" y="-88"/>
      <point x="362" y="-50"/>
      <point x="466" y="47" type="curve" smooth="yes"/>
      <point x="480" y="60"/>
      <point x="492" y="70"/>
      <point x="502" y="82" type="curve"/>
      <point x="488" y="96" type="line"/>
      <point x="447" y="42"/>
      <point x="381" y="16"/>
      <point x="312" y="16" type="curve" smooth="yes"/>
      <point x="175" y="16"/>
      <point x="73" y="116"/>
      <point x="73" y="259" type="curve" smooth="yes"/>
      <point x="73" y="263" type="line" smooth="yes"/>
      <point x="73" y="399"/>
      <point x="166" y="501"/>
      <point x="293" y="501" type="curve" smooth="yes"/>
      <point x="420" y="501"/>
      <point x="514" y="399"/>
      <point x="514" y="263" type="curve"/>
      <point x="522" y="278" type="line"/>
      <point x="65" y="278" type="line"/>
      <point x="65" y="259" type="line"/>
      <point x="533" y="259" type="line"/>
      <point x="533" y="261"/>
      <point x="533" y="262"/>
      <point x="533" y="264" type="curve" smooth="yes"/>
      <point x="533" y="414"/>
      <point x="429" y="520"/>
      <point x="293" y="520" type="curve" smooth="yes"/>
      <point x="156" y="520"/>
      <point x="54" y="412"/>
      <point x="54" y="259" type="curve" smooth="yes"/>
      <point x="54" y="106"/>
      <point x="163" y="-3"/>
      <point x="312" y="-3" type="curve" smooth="yes"/>
      <point x="350" y="-3"/>
      <point x="387" y="5"/>
      <point x="421" y="20" type="curve"/>
      <point x="421" y="25" type="line"/>
      <point x="344" y="-41"/>
      <point x="328" y="-90"/>
      <point x="328" y="-129" type="curve" smooth="yes"/>
      <point x="328" y="-182"/>
      <point x="367" y="-213"/>
    </contour>
  </outline>
</glyph>
<glyph name="oe" format="2">
  <advance width="1070"/>
  <unicode hex="0153"/>
  <anchor x="546" y="0" name="bottom"/>
  <anchor x="546" y="517" name="top"/>
  <outline>
    <contour>
      <point x="305" y="-3" type="curve" smooth="yes"/>
      <point x="448" y="-3"/>
      <point x="554" y="106"/>
      <point x="554" y="259" type="curve" smooth="yes"/>
      <point x="554" y="412"/>
      <point x="448" y="520"/>
      <point x="305" y="520" type="curve" smooth="yes"/>
      <point x="161" y="520"/>
      <point x="54" y="412"/>
      <point x="54" y="259" type="curve" smooth="yes"/>
      <point x="54" y="106"/>
      <point x="161" y="-3"/>
    </contour>
    <contour>
      <point x="305" y="16" type="curve" smooth="yes"/>
      <point x="173" y="16"/>
      <point x="74" y="116"/>
      <point x="74" y="259" type="curve" smooth="yes"/>
      <point x="74" y="402"/>
      <point x="173" y="501"/>
      <point x="305" y="501" type="curve" smooth="yes"/>
      <point x="437" y="501"/>
      <point x="536" y="402"/>
      <point x="536" y="259" type="curve" smooth="yes"/>
      <point x="536" y="116"/>
      <point x="437" y="16"/>
    </contour>
    <contour>
      <point x="795" y="-3" type="curve" smooth="yes"/>
      <point x="869" y="-3"/>
      <point x="939" y="26"/>
      <point x="985" y="82" type="curve"/>
      <point x="971" y="96" type="line"/>
      <point x="930" y="42"/>
      <point x="864" y="16"/>
      <point x="795" y="16" type="curve" smooth="yes"/>
      <point x="658" y="16"/>
      <point x="556" y="116"/>
      <point x="556" y="259" type="curve" smooth="yes"/>
      <point x="556" y="263" type="line" smooth="yes"/>
      <point x="556" y="399"/>
      <point x="649" y="501"/>
      <point x="776" y="501" type="curve" smooth="yes"/>
      <point x="903" y="501"/>
      <point x="997" y="399"/>
      <point x="997" y="263" type="curve"/>
      <point x="1005" y="278" type="line"/>
      <point x="548" y="278" type="line"/>
      <point x="548" y="259" type="line"/>
      <point x="1016" y="259" type="line"/>
      <point x="1016" y="261"/>
      <point x="1016" y="262"/>
      <point x="1016" y="264" type="curve" smooth="yes"/>
      <point x="1016" y="414"/>
      <point x="912" y="520"/>
      <point x="776" y="520" type="curve" smooth="yes"/>
      <point x="639" y="520"/>
      <point x="538" y="412"/>
      <point x="538" y="259" type="curve" smooth="yes"/>
      <point x="538" y="106"/>
      <point x="646" y="-3"/>
    </contour>
  </outline>
</glyph>
<glyph name="ohorn" format="2">
  <advance width="610"/>
  <unicode hex="01A1"/>
  <anchor x="305" y="0" name="bottom"/>
  <anchor x="305" y="517" name="top"/>
  <outline>
    <contour>
      <point x="305" y="-3" type="curve" smooth="yes"/>
      <point x="449" y="-3"/>
      <point x="556" y="106"/>
      <point x="556" y="259" type="curve" smooth="yes"/>
      <point x="556" y="380"/>
      <point x="489" y="473"/>
      <point x="390" y="506" type="curve"/>
      <point x="399" y="498" type="line"/>
      <point x="417" y="496"/>
      <point x="427" y="496"/>
      <point x="436" y="496" type="curve" smooth="yes"/>
      <point x="511" y="496"/>
      <point x="546" y="540"/>
      <point x="546" y="589" type="curve" smooth="yes"/>
      <point x="546" y="615"/>
      <point x="537" y="643"/>
      <point x="524" y="663" type="curve"/>
      <point x="506" y="655" type="line"/>
      <point x="517" y="636"/>
      <point x="526" y="614"/>
      <point x="526" y="588" type="curve" smooth="yes"/>
      <point x="526" y="551"/>
      <point x="498" y="515"/>
      <point x="435" y="515" type="curve" smooth="yes"/>
      <point x="380" y="515"/>
      <point x="360" y="520"/>
      <point x="305" y="520" type="curve" smooth="yes"/>
      <point x="161" y="520"/>
      <point x="54" y="412"/>
      <point x="54" y="259" type="curve" smooth="yes"/>
      <point x="54" y="106"/>
      <point x="161" y="-3"/>
    </contour>
    <contour>
      <point x="305" y="16" type="curve" smooth="yes"/>
      <point x="173" y="16"/>
      <point x="74" y="116"/>
      <point x="74" y="259" type="curve" smooth="yes"/>
      <point x="74" y="402"/>
      <point x="173" y="501"/>
      <point x="305" y="501" type="curve" smooth="yes"/>
      <point x="437" y="501"/>
      <point x="536" y="402"/>
      <point x="536" y="259" type="curve" smooth="yes"/>
      <point x="536" y="116"/>
      <point x="437" y="16"/>
    </contour>
  </outline>
</glyph>
<glyph name="Oogonek" format="2">
  <advance width="836"/>
  <unicode hex="01EA"/>
  <anchor x="418" y="700" name="top"/>
  <outline>
    <contour>
      <point x="413" y="-213" type="curve" smooth="yes"/>
      <point x="441" y="-213"/>
      <point x="465" y="-205"/>
      <point x="487" y="-186" type="curve"/>
      <point x="476" y="-171" type="line"/>
      <point x="460" y="-186"/>
      <point x="437" y="-194"/>
      <point x="414" y="-194" type="curve" smooth="yes"/>
      <point x="373" y="-194"/>
      <point x="342" y="-173"/>
      <point x="342" y="-130" type="curve" smooth="yes"/>
      <point x="342" y="-65"/>
      <point x="418" y="-10"/>
      <point x="500" y="6" type="curve" smooth="yes"/>
      <point x="651" y="36"/>
      <point x="777" y="165"/>
      <point x="777" y="350" type="curve" smooth="yes"/>
      <point x="777" y="552"/>
      <point x="623" y="703"/>
      <point x="418" y="703" type="curve" smooth="yes"/>
      <point x="213" y="703"/>
      <point x="59" y="552"/>
      <point x="59" y="350" type="curve" smooth="yes"/>
      <point x="59" y="148"/>
      <point x="213" y="-3"/>
      <point x="418" y="-3" type="curve" smooth="yes"/>
      <point x="426" y="-3"/>
      <point x="433" y="-2"/>
      <point x="441" y="-1" type="curve"/>
      <point x="459" y="16" type="line"/>
      <point x="348" y="-32"/>
      <point x="322" y="-89"/>
      <point x="322" y="-130" type="curve" smooth="yes"/>
      <point x="322" y="-182"/>
      <point x="361" y="-213"/>
    </contour>
    <contour>
      <point x="418" y="16" type="curve" smooth="yes"/>
      <point x="225" y="16"/>
      <point x="79" y="159"/>
      <point x="79" y="350" type="curve" smooth="yes"/>
      <point x="79" y="541"/>
      <point x="225" y="684"/>
      <point x="418" y="684" type="curve" smooth="yes"/>
      <point x="611" y="684"/>
      <point x="757" y="541"/>
      <point x="757" y="350" type="curve" smooth="yes"/>
      <point x="757" y="159"/>
      <point x="611" y="16"/>
    </contour>
  </outline>
</glyph>
<glyph name="verticallinemod" format="2">
  <advance width="154"/>
  <unicode hex="02C8"/>
  <outline>
    <contour>
      <point x="67" y="519" type="line"/>
      <point x="87" y="519" type="line"/>
      <point x="87" y="699" type="line"/>
      <point x="67" y="699" type="line"/>
    </contour>
  </outline>
</glyph>
<glyph name="hungarumlautcomb" format="2">
  <unicode hex="030B"/>
  <anchor x="300" y="517" name="_top"/>
  <anchor x="300" y="660" name="top"/>
  <outline>
    <contour>
      <point x="356" y="607" type="line"/>
      <point x="383" y="607" type="line"/>
      <point x="501" y="717" type="line"/>
      <point x="467" y="717" type="line"/>
    </contour>
    <contour>
      <point x="217" y="607" type="line"/>
      <point x="244" y="607" type="line"/>
      <point x="362" y="717" type="line"/>
      <point x="328" y="717" type="line"/>
    </contour>
  </outline>
</glyph>
<glyph name="slashshortcomb" format="2">
  <unicode hex="0337"/>
  <anchor x="153" y="377" name="_center"/>
  <outline>
    <contour>
      <point x="62" y="299" type="line"/>
      <point x="255" y="441" type="line"/>
      <point x="244" y="455" type="line"/>
      <point x="51" y="313" type="line"/>
    </contour>
  </outline>
</glyph>
<glyph name="E-cy" format="2">
  <advance width="704"/>
  <unicode hex="0404"/>
  <anchor x="392" y="0" name="bottom"/>
  <outline>
    <contour>
      <point x="496" y="351" type="line"/>
      <point x="84" y="351" type="line"/>
      <point x="84" y="332" type="line"/>
      <point x="496" y="332" type="line"/>
    </contour>
    <contour>
      <point x="410" y="-3" type="curve" smooth="yes"/>
      <point x="508" y="-3"/>
      <point x="598" y="27"/>
      <point x="658" y="87" type="curve"/>
      <point x="646" y="101" type="line"/>
      <point x="582" y="40"/>
      <point x="501" y="16"/>
      <point x="410" y="16" type="curve" smooth="yes"/>
      <point x="230" y="16"/>
      <point x="91" y="161"/>
      <point x="91" y="350" type="curve" smooth="yes"/>
      <point x="91" y="539"/>
      <point x="230" y="684"/>
      <point x="410" y="684" type="curve" smooth="yes"/>
      <point x="501" y="684"/>
      <point x="582" y="661"/>
      <point x="646" y="600" type="curve"/>
      <point x="658" y="614" type="line"/>
      <point x="598" y="674"/>
      <point x="508" y="703"/>
      <point x="410" y="703" type="curve" smooth="yes"/>
      <point x="218" y="703"/>
      <point x="71" y="552"/>
      <point x="71" y="350" type="curve" smooth="yes"/>
      <point x="71" y="148"/>
      <point x="218" y="-3"/>
    </contour>
  </outline>
</glyph>
<glyph name="Dzhe-cy" format="2">
  <advance width="804"/>
  <unicode hex="040F"/>
  <outline>
    <contour>
      <point x="667" y="700" type="line"/>
      <point x="647" y="700" type="line"/>
      <point x="647" y="19" type="line"/>
      <point x="157" y="19" type="line"/>
      <point x="157" y="700" type="line"/>
      <point x="137" y="700" type="line"/>
      <point x="137" y="0" type="line"/>
      <point x="392" y="0" type="line"/>
      <point x="392" y="-175" type="line"/>
      <point x="412" y="-175" type="line"/>
      <point x="412" y="0" type="line"/>
      <point x="667" y="0" type="line"/>
    </contour>
  </outline>
</glyph>
<glyph name="Ve-cy" format="2">
  <advance width="752"/>
  <unicode hex="0412"/>
  <anchor x="378" y="0" name="bottom"/>
  <anchor x="378" y="700" name="top"/>
  <outline>
    <contour>
      <point x="137" y="0" type="line"/>
      <point x="425" y="0" type="line" smooth="yes"/>
      <point x="590" y="0"/>
      <point x="670" y="65"/>
      <point x="670" y="183" type="curve" smooth="yes"/>
      <point x="670" y="301"/>
      <point x="591" y="363"/>
      <point x="436" y="363" type="curve"/>
      <point x="419" y="350" type="line"/>
      <point x="545" y="350"/>
      <point x="633" y="406"/>
      <point x="633" y="523" type="curve" smooth="yes"/>
      <point x="633" y="640"/>
      <point x="545" y="700"/>
      <point x="406" y="700" type="curve" smooth="yes"/>
      <point x="137" y="700" type="line"/>
    </contour>
    <contour>
      <point x="157" y="19" type="line"/>
      <point x="157" y="346" type="line"/>
      <point x="429" y="346" type="line" smooth="yes"/>
      <point x="573" y="346"/>
      <point x="650" y="296"/>
      <point x="650" y="183" type="curve" smooth="yes"/>
      <point x="650" y="70"/>
      <point x="573" y="19"/>
      <point x="429" y="19" type="curve" smooth="yes"/>
    </contour>
    <contour>
      <point x="157" y="365" type="line"/>
      <point x="157" y="681" type="line"/>
      <point x="409" y="681" type="line" smooth="yes"/>
      <point x="538" y="681"/>
      <point x="613" y="627"/>
      <point x="613" y="523" type="curve" smooth="yes"/>
      <point x="613" y="419"/>
      <point x="538" y="365"/>
      <point x="409" y="365" type="curve" smooth="yes"/>
    </contour>
  </outline>
</glyph>
<glyph name="Ii-cy" format="2">
  <advance width="826"/>
  <unicode hex="0418"/>
  <anchor x="669" y="0" name="bottomleft"/>
  <anchor x="807" y="0" name="bottomright"/>
  <anchor x="410" y="700" name="top"/>
  <outline>
    <contour>
      <point x="137" y="0" type="line"/>
      <point x="152" y="0" type="line"/>
      <point x="669" y="662" type="line"/>
      <point x="669" y="0" type="line"/>
      <point x="689" y="0" type="line"/>
      <point x="689" y="700" type="line"/>
      <point x="674" y="700" type="line"/>
      <point x="157" y="38" type="line"/>
      <point x="157" y="700" type="line"/>
      <point x="137" y="700" type="line"/>
    </contour>
  </outline>
</glyph>
<glyph name="Ka-cy" format="2">
  <advance width="684"/>
  <unicode hex="041A"/>
  <anchor x="632" y="0" name="bottomleft"/>
  <anchor x="668" y="0" name="bottomright"/>
  <anchor x="338" y="700" name="top"/>
  <outline>
    <contour>
      <point x="632" y="0" type="line"/>
      <point x="657" y="0" type="line"/>
      <point x="349" y="365" type="line"/>
      <point x="331" y="357" type="line"/>
    </contour>
    <contour>
      <point x="137" y="0" type="line"/>
      <point x="157" y="0" type="line"/>
      <point x="157" y="700" type="line"/>
      <point x="137" y="700" type="line"/>
    </contour>
    <contour>
      <point x="149" y="347" type="line"/>
      <point x="353" y="347" type="line"/>
      <point x="353" y="366" type="line"/>
      <point x="149" y="366" type="line"/>
    </contour>
    <contour>
      <point x="349" y="349" type="line"/>
      <point x="636" y="700" type="line"/>
      <point x="611" y="700" type="line"/>
      <point x="331" y="357" type="line"/>
    </contour>
  </outline>
</glyph>
<glyph name="Ereversed-cy" format="2">
  <advance width="704"/>
  <unicode hex="042D"/>
  <guideline x="43" y="537" angle="90"/>
  <anchor x="312" y="700" name="top"/>
  <outline>
    <contour>
      <point x="208" y="349" type="line"/>
      <point x="620" y="349" type="line"/>
      <point x="620" y="368" type="line"/>
      <point x="208" y="368" type="line"/>
    </contour>
    <contour>
      <point x="294" y="703" type="curve" smooth="yes"/>
      <point x="196" y="703"/>
      <point x="106" y="673"/>
      <point x="46" y="613" type="curve"/>
      <point x="58" y="599" type="line"/>
      <point x="122" y="660"/>
      <point x="203" y="684"/>
      <point x="294" y="684" type="curve" smooth="yes"/>
      <point x="474" y="684"/>
      <point x="613" y="539"/>
      <point x="613" y="350" type="curve" smooth="yes"/>
      <point x="613" y="161"/>
      <point x="474" y="16"/>
      <point x="294" y="16" type="curve" smooth="yes"/>
      <point x="203" y="16"/>
      <point x="122" y="39"/>
      <point x="58" y="100" type="curve"/>
      <point x="46" y="86" type="line"/>
      <point x="106" y="26"/>
      <point x="196" y="-3"/>
      <point x="294" y="-3" type="curve" smooth="yes"/>
      <point x="486" y="-3"/>
      <point x="633" y="148"/>
      <point x="633" y="350" type="curve" smooth="yes"/>
      <point x="633" y="552"/>
      <point x="486" y="703"/>
    </contour>
  </outline>
</glyph>
<glyph name="be-cy" format="2">
  <advance width="652"/>
  <unicode hex="0431"/>
  <outline>
    <contour>
      <point x="335" y="-3" type="curve" smooth="yes"/>
      <point x="487" y="-3"/>
      <point x="588" y="106"/>
      <point x="588" y="255" type="curve" smooth="yes"/>
      <point x="588" y="404"/>
      <point x="486" y="507"/>
      <point x="342" y="507" type="curve" smooth="yes"/>
      <point x="198" y="507"/>
      <point x="96" y="402"/>
      <point x="96" y="259" type="curve"/>
      <point x="108" y="265" type="line"/>
      <point x="102" y="304"/>
      <point x="101" y="311"/>
      <point x="101" y="336" type="curve" smooth="yes"/>
      <point x="101" y="627"/>
      <point x="261" y="667"/>
      <point x="346" y="688" type="curve" smooth="yes"/>
      <point x="564" y="742" type="line"/>
      <point x="559" y="762" type="line"/>
      <point x="335" y="705" type="line" smooth="yes"/>
      <point x="251" y="684"/>
      <point x="81" y="636"/>
      <point x="81" y="339" type="curve" smooth="yes"/>
      <point x="81" y="121"/>
      <point x="173" y="-3"/>
    </contour>
    <contour>
      <point x="342" y="16" type="curve" smooth="yes"/>
      <point x="210" y="16"/>
      <point x="116" y="117"/>
      <point x="116" y="255" type="curve" smooth="yes"/>
      <point x="116" y="393"/>
      <point x="210" y="488"/>
      <point x="342" y="488" type="curve" smooth="yes"/>
      <point x="474" y="488"/>
      <point x="568" y="393"/>
      <point x="568" y="255" type="curve" smooth="yes"/>
      <point x="568" y="117"/>
      <point x="474" y="16"/>
    </contour>
  </outline>
</glyph>
<glyph name="ii-cy" format="2">
  <advance width="674"/>
  <unicode hex="0438"/>
  <anchor x="537" y="0" name="bottomleft"/>
  <anchor x="647" y="0" name="bottomright"/>
  <anchor x="337" y="517" name="top"/>
  <outline>
    <contour>
      <point x="117" y="0" type="line"/>
      <point x="133" y="0" type="line"/>
      <point x="537" y="483" type="line"/>
      <point x="537" y="0" type="line"/>
      <point x="557" y="0" type="line"/>
      <point x="557" y="517" type="line"/>
      <point x="541" y="517" type="line"/>
      <point x="137" y="34" type="line"/>
      <point x="137" y="517" type="line"/>
      <point x="117" y="517" type="line"/>
    </contour>
  </outline>
</glyph>
<glyph name="softsign-cy" format="2">
  <advance width="538"/>
  <unicode hex="044C"/>
  <anchor x="117" y="0" name="#entry"/>
  <anchor x="141" y="435" name="center"/>
  <outline>
    <contour>
      <point x="303" y="321" type="curve" smooth="yes"/>
      <point x="137" y="323" type="line"/>
      <point x="137" y="517" type="line"/>
      <point x="117" y="517" type="line"/>
      <point x="117" y="0" type="line"/>
      <point x="294" y="-2" type="line" smooth="yes"/>
      <point x="427" y="-4"/>
      <point x="497" y="54"/>
      <point x="497" y="162" type="curve" smooth="yes"/>
      <point x="497" y="266"/>
      <point x="430" y="319"/>
    </contour>
    <contour>
      <point x="296" y="16" type="curve" smooth="yes"/>
      <point x="137" y="18" type="line"/>
      <point x="137" y="305" type="line"/>
      <point x="296" y="303" type="line" smooth="yes"/>
      <point x="417" y="301"/>
      <point x="477" y="256"/>
      <point x="477" y="161" type="curve" smooth="yes"/>
      <point x="477" y="65"/>
      <point x="416" y="14"/>
    </contour>
  </outline>
</glyph>
<glyph name="Yat-cy" format="2">
  <advance width="783"/>
  <unicode hex="0462"/>
  <anchor x="244" y="590" name="center"/>
  <outline>
    <contour>
      <point x="216" y="0" type="line"/>
      <point x="470" y="0" type="line" smooth="yes"/>
      <point x="640" y="0"/>
      <point x="730" y="76"/>
      <point x="730" y="221" type="curve" smooth="yes"/>
      <point x="730" y="362"/>
      <point x="644" y="436"/>
      <point x="481" y="436" type="curve" smooth="yes"/>
      <point x="236" y="436" type="line"/>
      <point x="236" y="742" type="line"/>
      <point x="216" y="742" type="line"/>
    </contour>
    <contour>
      <point x="236" y="19" type="line"/>
      <point x="236" y="417" type="line"/>
      <point x="474" y="417" type="line" smooth="yes"/>
      <point x="632" y="417"/>
      <point x="710" y="352"/>
      <point x="710" y="220" type="curve" smooth="yes"/>
      <point x="710" y="87"/>
      <point x="630" y="19"/>
      <point x="474" y="19" type="curve" smooth="yes"/>
    </contour>
    <contour>
      <point x="18" y="580" type="line"/>
      <point x="466" y="580" type="line"/>
      <point x="466" y="599" type="line"/>
      <point x="18" y="599" type="line"/>
    </contour>
  </outline>
</glyph>
<glyph name="yat-cy" format="2">
  <advance width="563"/>
  <unicode hex="0463"/>
  <outline>
    <contour>
      <point x="7" y="509" type="line"/>
      <point x="362" y="509" type="line"/>
      <point x="362" y="528" type="line"/>
      <point x="7" y="528" type="line"/>
    </contour>
    <contour>
      <point x="328" y="321" type="curve" smooth="yes"/>
      <point x="162" y="323" type="line"/>
      <point x="162" y="742" type="line"/>
      <point x="142" y="742" type="line"/>
      <point x="142" y="0" type="line"/>
      <point x="319" y="-2" type="line" smooth="yes"/>
      <point x="452" y="-4"/>
      <point x="522" y="54"/>
      <point x="522" y="162" type="curve" smooth="yes"/>
      <point x="522" y="266"/>
      <point x="455" y="319"/>
    </contour>
    <contour>
      <point x="321" y="16" type="curve" smooth="yes"/>
      <point x="162" y="18" type="line"/>
      <point x="162" y="305" type="line"/>
      <point x="321" y="303" type="line" smooth="yes"/>
      <point x="442" y="301"/>
      <point x="502" y="256"/>
      <point x="502" y="161" type="curve" smooth="yes"/>
      <point x="502" y="65"/>
      <point x="441" y="14"/>
    </contour>
  </outline>
</glyph>
<glyph name="Yusbig-cy" format="2">
  <advance width="851"/>
  <unicode hex="046A"/>
  <outline>
    <contour>
      <point x="30" y="0" type="line"/>
      <point x="53" y="0" type="line"/>
      <point x="131" y="164" type="line" smooth="yes"/>
      <point x="186" y="279"/>
      <point x="269" y="341"/>
      <point x="373" y="341" type="curve" smooth="yes"/>
      <point x="416" y="341" type="line"/>
      <point x="416" y="0" type="line"/>
      <point x="436" y="0" type="line"/>
      <point x="436" y="341" type="line"/>
      <point x="479" y="341" type="line" smooth="yes"/>
      <point x="581" y="341"/>
      <point x="665" y="279"/>
      <point x="720" y="164" type="curve" smooth="yes"/>
      <point x="799" y="0" type="line"/>
      <point x="821" y="0" type="line"/>
      <point x="737" y="174" type="line" smooth="yes"/>
      <point x="678" y="296"/>
      <point x="588" y="360"/>
      <point x="479" y="360" type="curve" smooth="yes"/>
      <point x="373" y="360" type="line" smooth="yes"/>
      <point x="263" y="360"/>
      <point x="173" y="295"/>
      <point x="114" y="173" type="curve" smooth="yes"/>
    </contour>
    <contour>
      <point x="426" y="360" type="line"/>
      <point x="127" y="681" type="line"/>
      <point x="723" y="681" type="line"/>
    </contour>
    <contour>
      <point x="402" y="358" type="line"/>
      <point x="447" y="358" type="line"/>
      <point x="750" y="681" type="line"/>
      <point x="750" y="700" type="line"/>
      <point x="100" y="700" type="line"/>
      <point x="100" y="681" type="line"/>
    </contour>
  </outline>
</glyph>
<glyph name="Kaverticalstroke-cy" format="2">
  <advance width="702"/>
  <unicode hex="049C"/>
  <outline>
    <contour>
      <point x="647" y="0" type="line"/>
      <point x="672" y="0" type="line"/>
      <point x="384" y="365" type="line"/>
      <point x="366" y="357" type="line"/>
    </contour>
    <contour>
      <point x="137" y="0" type="line"/>
      <point x="157" y="0" type="line"/>
      <point x="157" y="700" type="line"/>
      <point x="137" y="700" type="line"/>
    </contour>
    <contour>
      <point x="149" y="347" type="line"/>
      <point x="388" y="347" type="line"/>
      <point x="388" y="366" type="line"/>
      <point x="149" y="366" type="line"/>
    </contour>
    <contour>
      <point x="275" y="176" type="line"/>
      <point x="295" y="176" type="line"/>
      <point x="295" y="539" type="line"/>
      <point x="275" y="539" type="line"/>
    </contour>
    <contour>
      <point x="384" y="349" type="line"/>
      <point x="651" y="700" type="line"/>
      <point x="626" y="700" type="line"/>
      <point x="366" y="357" type="line"/>
    </contour>
  </outline>
</glyph>
<glyph name="Kastroke-cy" format="2">
  <advance width="706"/>
  <unicode hex="049E"/>
  <anchor x="654" y="0" name="bottomleft"/>
  <anchor x="690" y="0" name="bottomright"/>
  <anchor x="360" y="700" name="top"/>
  <outline>
    <contour>
      <point x="40" y="575" type="line"/>
      <point x="390" y="575" type="line"/>
      <point x="390" y="594" type="line"/>
      <point x="40" y="594" type="line"/>
    </contour>
    <component base="Ka-cy" xOffset="22"/>
  </outline>
</glyph>
<glyph name="ustrait-cy" format="2">
  <advance width="530"/>
  <unicode hex="04AF"/>
  <anchor x="265" y="5" name="center"/>
  <outline>
    <contour>
      <point x="261" y="-13" type="line"/>
      <point x="269" y="-13" type="line"/>
      <point x="513" y="517" type="line"/>
      <point x="490" y="517" type="line"/>
      <point x="261" y="14" type="line"/>
      <point x="269" y="14" type="line"/>
      <point x="40" y="517" type="line"/>
      <point x="17" y="517" type="line"/>
    </contour>
    <contour>
      <point x="275" y="10" type="line"/>
      <point x="255" y="10" type="line"/>
      <point x="255" y="-194" type="line"/>
      <point x="275" y="-194" type="line"/>
    </contour>
  </outline>
</glyph>
<glyph name="Tetse-cy" format="2">
  <advance width="952"/>
  <unicode hex="04B4"/>
  <anchor x="278" y="0" name="bottom"/>
  <anchor x="278" y="356" name="center"/>
  <anchor x="278" y="700" name="top"/>
  <outline>
    <contour>
      <point x="268" y="0" type="line"/>
      <point x="288" y="0" type="line"/>
      <point x="288" y="690" type="line"/>
      <point x="279" y="681" type="line"/>
      <point x="538" y="681" type="line"/>
      <point x="538" y="700" type="line"/>
      <point x="8" y="700" type="line"/>
      <point x="8" y="681" type="line"/>
      <point x="277" y="681" type="line"/>
      <point x="268" y="690" type="line"/>
    </contour>
    <component base="Tse-cy" xOffset="131"/>
  </outline>
</glyph>
<glyph name="Cheverticalstroke-cy" format="2">
  <advance width="720"/>
  <unicode hex="04B8"/>
  <anchor x="563" y="0" name="bottomleft"/>
  <anchor x="700" y="0" name="bottomright"/>
  <anchor x="329" y="700" name="top"/>
  <outline>
    <contour>
      <point x="314" y="86" type="line"/>
      <point x="334" y="86" type="line"/>
      <point x="334" y="446" type="line"/>
      <point x="314" y="446" type="line"/>
    </contour>
    <component base="Che-cy"/>
  </outline>
</glyph>
<glyph name="cheverticalstroke-cy" format="2">
  <advance width="579"/>
  <unicode hex="04B9"/>
  <anchor x="442" y="0" name="bottomleft"/>
  <anchor x="559" y="0" name="bottomright"/>
  <anchor x="256" y="517" name="top"/>
  <outline>
    <contour>
      <point x="253" y="72" type="line"/>
      <point x="270" y="72" type="line"/>
      <point x="270" y="338" type="line"/>
      <point x="253" y="338" type="line"/>
    </contour>
    <component base="che-cy"/>
  </outline>
</glyph>
<glyph name="enhook-cy" format="2">
  <advance width="673"/>
  <unicode hex="04C8"/>
  <outline>
    <contour>
      <point x="434" y="-197" type="curve" smooth="yes"/>
      <point x="513" y="-197"/>
      <point x="556" y="-146"/>
      <point x="556" y="-70" type="curve"/>
      <point x="556" y="517" type="line"/>
      <point x="536" y="517" type="line"/>
      <point x="536" y="270" type="line"/>
      <point x="137" y="270" type="line"/>
      <point x="137" y="517" type="line"/>
      <point x="117" y="517" type="line"/>
      <point x="117" y="0" type="line"/>
      <point x="137" y="0" type="line"/>
      <point x="137" y="252" type="line"/>
      <point x="536" y="252" type="line"/>
      <point x="536" y="-65" type="line" smooth="yes"/>
      <point x="536" y="-138"/>
      <point x="500" y="-178"/>
      <point x="433" y="-178" type="curve" smooth="yes"/>
      <point x="397" y="-178"/>
      <point x="366" y="-167"/>
      <point x="344" y="-146" type="curve"/>
      <point x="330" y="-160" type="line"/>
      <point x="354" y="-185"/>
      <point x="394" y="-197"/>
    </contour>
  </outline>
</glyph>
<glyph name="dzeabkhasian-cy" format="2">
  <advance width="487"/>
  <unicode hex="04E1"/>
  <outline>
    <contour>
      <point x="214" y="-198" type="curve" smooth="yes"/>
      <point x="364" y="-198"/>
      <point x="445" y="-118"/>
      <point x="445" y="0" type="curve" smooth="yes"/>
      <point x="445" y="118"/>
      <point x="365" y="198"/>
      <point x="200" y="198" type="curve" smooth="yes"/>
      <point x="185" y="198" type="line"/>
      <point x="187" y="191" type="line"/>
      <point x="419" y="502" type="line"/>
      <point x="419" y="517" type="line"/>
      <point x="-4" y="517" type="line"/>
      <point x="-4" y="498" type="line"/>
      <point x="399" y="498" type="line"/>
      <point x="397" y="505" type="line"/>
      <point x="165" y="194" type="line"/>
      <point x="165" y="179" type="line"/>
      <point x="201" y="179" type="line" smooth="yes"/>
      <point x="354" y="179"/>
      <point x="425" y="109"/>
      <point x="425" y="0" type="curve" smooth="yes"/>
      <point x="425" y="-109"/>
      <point x="353" y="-179"/>
      <point x="214" y="-179" type="curve" smooth="yes"/>
      <point x="111" y="-179"/>
      <point x="26" y="-137"/>
      <point x="-13" y="-84" type="curve"/>
      <point x="-26" y="-97" type="line"/>
      <point x="16" y="-156"/>
      <point x="109" y="-198"/>
    </contour>
  </outline>
</glyph>
<glyph name="obarred-cy" format="2">
  <advance width="638"/>
  <unicode hex="04E9"/>
  <anchor x="319" y="517" name="top"/>
  <outline>
    <contour>
      <point x="319" y="520" type="curve" smooth="yes"/>
      <point x="171" y="520"/>
      <point x="61" y="412"/>
      <point x="61" y="259" type="curve" smooth="yes"/>
      <point x="61" y="106"/>
      <point x="171" y="-3"/>
      <point x="319" y="-3" type="curve" smooth="yes"/>
      <point x="466" y="-3"/>
      <point x="576" y="106"/>
      <point x="576" y="259" type="curve" smooth="yes"/>
      <point x="576" y="412"/>
      <point x="466" y="520"/>
    </contour>
    <contour>
      <point x="319" y="501" type="curve" smooth="yes"/>
      <point x="451" y="501"/>
      <point x="551" y="407"/>
      <point x="556" y="269" type="curve"/>
      <point x="81" y="269" type="line"/>
      <point x="86" y="407"/>
      <point x="186" y="501"/>
    </contour>
    <contour>
      <point x="319" y="16" type="curve" smooth="yes"/>
      <point x="186" y="16"/>
      <point x="85" y="112"/>
      <point x="81" y="250" type="curve"/>
      <point x="556" y="250" type="line"/>
      <point x="552" y="112"/>
      <point x="451" y="16"/>
    </contour>
  </outline>
</glyph>
<glyph name="Hastroke-cy" format="2">
  <advance width="636"/>
  <unicode hex="04FE"/>
  <outline>
    <contour>
      <point x="108" y="354" type="line"/>
      <point x="518" y="354" type="line"/>
      <point x="518" y="373" type="line"/>
      <point x="108" y="373" type="line"/>
    </contour>
    <contour>
      <point x="65" y="700" type="line"/>
      <point x="307" y="363" type="line"/>
      <point x="46" y="0" type="line"/>
      <point x="70" y="0" type="line"/>
      <point x="319" y="347" type="line"/>
      <point x="569" y="0" type="line"/>
      <point x="593" y="0" type="line"/>
      <point x="331" y="363" type="line"/>
      <point x="574" y="700" type="line"/>
      <point x="550" y="700" type="line"/>
      <point x="319" y="380" type="line"/>
      <point x="89" y="700" type="line"/>
    </contour>
  </outline>
</glyph>
<glyph name="reversedze-cy" format="2">
  <advance width="514"/>
  <unicode hex="0511"/>
  <outline>
    <contour>
      <point x="284" y="-3" type="curve" smooth="yes"/>
      <point x="352" y="-3"/>
      <point x="428" y="19"/>
      <point x="481" y="71" type="curve"/>
      <point x="468" y="84" type="line"/>
      <point x="419" y="35"/>
      <point x="346" y="14"/>
      <point x="279" y="15" type="curve" smooth="yes"/>
      <point x="171" y="17"/>
      <point x="95" y="74"/>
      <point x="95" y="147" type="curve" smooth="yes"/>
      <point x="95" y="218"/>
      <point x="165" y="260"/>
      <point x="273" y="260" type="curve" smooth="yes"/>
      <point x="349" y="260" type="line"/>
      <point x="349" y="279" type="line"/>
      <point x="272" y="279" type="line" smooth="yes"/>
      <point x="182" y="279"/>
      <point x="110" y="318"/>
      <point x="110" y="387" type="curve" smooth="yes"/>
      <point x="110" y="463"/>
      <point x="194" y="503"/>
      <point x="288" y="501" type="curve" smooth="yes"/>
      <point x="340" y="500"/>
      <point x="397" y="485"/>
      <point x="447" y="454" type="curve"/>
      <point x="456" y="471" type="line"/>
      <point x="402" y="504"/>
      <point x="342" y="520"/>
      <point x="282" y="520" type="curve" smooth="yes"/>
      <point x="180" y="520"/>
      <point x="90" y="473"/>
      <point x="90" y="389" type="curve" smooth="yes"/>
      <point x="90" y="310"/>
      <point x="169" y="264"/>
      <point x="267" y="264" type="curve"/>
      <point x="264" y="275" type="line"/>
      <point x="143" y="275"/>
      <point x="75" y="224"/>
      <point x="75" y="147" type="curve" smooth="yes"/>
      <point x="75" y="53"/>
      <point x="175" y="-3"/>
    </contour>
  </outline>
</glyph>
<glyph name="elhook-cy" format="2">
  <advance width="613"/>
  <unicode hex="0513"/>
  <anchor x="466" y="0" name="bottomleft"/>
  <outline>
    <contour>
      <point x="374" y="-197" type="curve" smooth="yes"/>
      <point x="453" y="-197"/>
      <point x="496" y="-146"/>
      <point x="496" y="-70" type="curve" smooth="yes"/>
      <point x="496" y="517" type="line"/>
      <point x="156" y="517" type="line"/>
      <point x="147" y="348" type="line" smooth="yes"/>
      <point x="138" y="179"/>
      <point x="125" y="15"/>
      <point x="34" y="15" type="curve" smooth="yes"/>
      <point x="27" y="15"/>
      <point x="17" y="17"/>
      <point x="9" y="19" type="curve"/>
      <point x="5" y="1" type="line"/>
      <point x="17" y="-2"/>
      <point x="27" y="-4"/>
      <point x="38" y="-4" type="curve" smooth="yes"/>
      <point x="140" y="-4"/>
      <point x="157" y="164"/>
      <point x="167" y="344" type="curve" smooth="yes"/>
      <point x="176" y="506" type="line"/>
      <point x="168" y="498" type="line"/>
      <point x="484" y="498" type="line"/>
      <point x="476" y="506" type="line"/>
      <point x="476" y="-65" type="line" smooth="yes"/>
      <point x="476" y="-138"/>
      <point x="440" y="-178"/>
      <point x="373" y="-178" type="curve" smooth="yes"/>
      <point x="337" y="-178"/>
      <point x="306" y="-167"/>
      <point x="284" y="-146" type="curve"/>
      <point x="270" y="-160" type="line"/>
      <point x="294" y="-185"/>
      <point x="334" y="-197"/>
    </contour>
  </outline>
</glyph>
<glyph name="enlefthook-cy" format="2">
  <advance width="662"/>
  <unicode hex="0529"/>
  <outline>
    <contour>
      <point x="525" y="517" type="line"/>
      <point x="525" y="270" type="line"/>
      <point x="138" y="270" type="line"/>
      <point x="138" y="517" type="line"/>
      <point x="118" y="517" type="line"/>
      <point x="118" y="-65" type="line" smooth="yes"/>
      <point x="118" y="-138"/>
      <point x="82" y="-178"/>
      <point x="15" y="-178" type="curve" smooth="yes"/>
      <point x="-21" y="-178"/>
      <point x="-52" y="-167"/>
      <point x="-74" y="-146" type="curve"/>
      <point x="-88" y="-160" type="line"/>
      <point x="-64" y="-185"/>
      <point x="-24" y="-197"/>
      <point x="16" y="-197" type="curve" smooth="yes"/>
      <point x="95" y="-197"/>
      <point x="138" y="-146"/>
      <point x="138" y="-70" type="curve" smooth="yes"/>
      <point x="138" y="252" type="line"/>
      <point x="525" y="252" type="line"/>
      <point x="525" y="0" type="line"/>
      <point x="545" y="0" type="line"/>
      <point x="545" y="517" type="line"/>
    </contour>
  </outline>
</glyph>
<glyph name="kip" format="2">
  <advance width="562"/>
  <unicode hex="20AD"/>
  <outline>
    <contour>
      <point x="30" y="341" type="line"/>
      <point x="473" y="341" type="line"/>
      <point x="473" y="360" type="line"/>
      <point x="30" y="360" type="line"/>
    </contour>
    <contour>
      <point x="140" y="0" type="line"/>
      <point x="160" y="0" type="line"/>
      <point x="160" y="700" type="line"/>
      <point x="140" y="700" type="line"/>
    </contour>
    <contour>
      <point x="518" y="0" type="line"/>
      <point x="546" y="0" type="line"/>
      <point x="199" y="350" type="line"/>
      <point x="171" y="350" type="line"/>
    </contour>
    <contour>
      <point x="518" y="700" type="line"/>
      <point x="171" y="350" type="line"/>
      <point x="199" y="350" type="line"/>
      <point x="546" y="700" type="line"/>
    </contour>
  </outline>
</glyph>
<glyph name="hryvnia" format="2">
  <advance width="827"/>
  <unicode hex="20B4"/>
  <outline>
    <contour>
      <point x="413" y="-3" type="curve" smooth="yes"/>
      <point x="515" y="-3"/>
      <point x="612" y="38"/>
      <point x="659" y="96" type="curve"/>
      <point x="645" y="109" type="line"/>
      <point x="601" y="57"/>
      <point x="512" y="16"/>
      <point x="414" y="16" type="curve" smooth="yes"/>
      <point x="262" y="16"/>
      <point x="194" y="86"/>
      <point x="194" y="172" type="curve" smooth="yes"/>
      <point x="194" y="224"/>
      <point x="216" y="257"/>
      <point x="249" y="281" type="curve"/>
      <point x="218" y="281" type="line"/>
      <point x="191" y="256"/>
      <point x="174" y="221"/>
      <point x="174" y="172" type="curve" smooth="yes"/>
      <point x="174" y="79"/>
      <point x="247" y="-3"/>
    </contour>
    <contour>
      <point x="116" y="272" type="line"/>
      <point x="706" y="272" type="line"/>
      <point x="706" y="290" type="line"/>
      <point x="116" y="290" type="line"/>
    </contour>
    <contour>
      <point x="116" y="410" type="line"/>
      <point x="706" y="410" type="line"/>
      <point x="706" y="428" type="line"/>
      <point x="116" y="428" type="line"/>
    </contour>
    <contour>
      <point x="567" y="419" type="curve"/>
      <point x="598" y="419" type="line"/>
      <point x="623" y="444"/>
      <point x="639" y="479"/>
      <point x="639" y="527" type="curve" smooth="yes"/>
      <point x="639" y="619"/>
      <point x="569" y="703"/>
      <point x="405" y="703" type="curve" smooth="yes"/>
      <point x="330" y="703"/>
      <point x="253" y="678"/>
      <point x="202" y="639" type="curve"/>
      <point x="213" y="623" type="line"/>
      <point x="269" y="664"/>
      <point x="341" y="684"/>
      <point x="404" y="684" type="curve" smooth="yes"/>
      <point x="551" y="684"/>
      <point x="619" y="613"/>
      <point x="619" y="526" type="curve" smooth="yes"/>
      <point x="619" y="476"/>
      <point x="599" y="443"/>
    </contour>
  </outline>
</glyph>
<glyph name="leftRightArrow" format="2">
  <advance width="600"/>
  <unicode hex="2194"/>
  <outline>
    <contour>
      <point x="397" y="93" type="line"/>
      <point x="424" y="93" type="line"/>
      <point x="550" y="269" type="line"/>
      <point x="424" y="448" type="line"/>
      <point x="397" y="448" type="line"/>
      <point x="522" y="269" type="line"/>
    </contour>
    <contour>
      <point x="176" y="93" type="line"/>
      <point x="203" y="93" type="line"/>
      <point x="78" y="269" type="line"/>
      <point x="203" y="448" type="line"/>
      <point x="176" y="448" type="line"/>
      <point x="50" y="269" type="line"/>
    </contour>
    <contour>
      <point x="67" y="260" type="line"/>
      <point x="530" y="260" type="line"/>
      <point x="530" y="280" type="line"/>
      <point x="67" y="280" type="line"/>
    </contour>
  </outline>
</glyph>
<glyph name="A.ss01" format="2">
  <advance width="804"/>
  <anchor x="402" y="0" name="bottom"/>
  <anchor x="677" y="0" name="ogonek"/>
  <anchor x="402" y="700" name="top"/>
  <anchor x="91" y="700" name="topleft"/>
  <outline>
    <contour>
      <point x="127" y="0" type="line"/>
      <point x="147" y="0" type="line"/>
      <point x="147" y="409" type="line" smooth="yes"/>
      <point x="147" y="593"/>
      <point x="243" y="684"/>
      <point x="402" y="684" type="curve" smooth="yes"/>
      <point x="561" y="684"/>
      <point x="657" y="593"/>
      <point x="657" y="409" type="curve" smooth="yes"/>
      <point x="657" y="0" type="line"/>
      <point x="677" y="0" type="line"/>
      <point x="677" y="407" type="line" smooth="yes"/>
      <point x="677" y="605"/>
      <point x="569" y="703"/>
      <point x="402" y="703" type="curve" smooth="yes"/>
      <point x="235" y="703"/>
      <point x="127" y="605"/>
      <point x="127" y="407" type="curve" smooth="yes"/>
    </contour>
    <contour>
      <point x="141" y="231" type="line"/>
      <point x="666" y="231" type="line"/>
      <point x="666" y="250" type="line"/>
      <point x="141" y="250" type="line"/>
    </contour>
  </outline>
</glyph>
<glyph name="AE.ss01" format="2">
  <advance width="1059"/>
  <anchor x="524" y="0" name="bottom"/>
  <anchor x="524" y="700" name="top"/>
  <outline>
    <contour>
      <point x="551" y="0" type="line"/>
      <point x="1017" y="0" type="line"/>
      <point x="1017" y="19" type="line"/>
      <point x="571" y="19" type="line"/>
      <point x="571" y="346" type="line"/>
      <point x="957" y="346" type="line"/>
      <point x="957" y="365" type="line"/>
      <point x="571" y="365" type="line"/>
      <point x="571" y="681" type="line"/>
      <point x="1002" y="681" type="line"/>
      <point x="1002" y="700" type="line"/>
      <point x="551" y="700" type="line"/>
    </contour>
    <contour>
      <point x="129" y="241" type="line"/>
      <point x="561" y="241" type="line"/>
      <point x="561" y="260" type="line"/>
      <point x="129" y="260" type="line"/>
    </contour>
    <contour>
      <point x="115" y="0" type="line"/>
      <point x="135" y="0" type="line"/>
      <point x="135" y="405" type="line" smooth="yes"/>
      <point x="135" y="581"/>
      <point x="223" y="681"/>
      <point x="380" y="681" type="curve" smooth="yes"/>
      <point x="561" y="681" type="line"/>
      <point x="561" y="700" type="line"/>
      <point x="380" y="700" type="line" smooth="yes"/>
      <point x="212" y="700"/>
      <point x="115" y="592"/>
      <point x="115" y="405" type="curve" smooth="yes"/>
    </contour>
  </outline>
</glyph>
<glyph name="Aogonek.loclNAV" format="2">
  <advance width="688"/>
  <anchor x="344" y="0" name="bottom"/>
  <anchor x="679" y="0" name="ogonek"/>
  <anchor x="344" y="700" name="top"/>
  <anchor x="106" y="700" name="topleft"/>
  <outline>
    <contour>
      <point x="9" y="0" type="line"/>
      <point x="32" y="0" type="line"/>
      <point x="349" y="684" type="line"/>
      <point x="339" y="684" type="line"/>
      <point x="656" y="0" type="line"/>
      <point x="679" y="0" type="line"/>
      <point x="354" y="700" type="line"/>
      <point x="334" y="700" type="line"/>
    </contour>
    <contour>
      <point x="116" y="211" type="line"/>
      <point x="571" y="211" type="line"/>
      <point x="561" y="230" type="line"/>
      <point x="126" y="230" type="line"/>
    </contour>
    <contour>
      <point x="332" y="-213" type="curve" smooth="yes"/>
      <point x="360" y="-213"/>
      <point x="384" y="-205"/>
      <point x="406" y="-186" type="curve"/>
      <point x="395" y="-171" type="line"/>
      <point x="379" y="-186"/>
      <point x="356" y="-194"/>
      <point x="333" y="-194" type="curve" smooth="yes"/>
      <point x="292" y="-194"/>
      <point x="261" y="-173"/>
      <point x="261" y="-130" type="curve" smooth="yes"/>
      <point x="261" y="-97"/>
      <point x="276" y="-54"/>
      <point x="371" y="-8" type="curve"/>
      <point x="362" y="8" type="line"/>
      <point x="261" y="-40"/>
      <point x="241" y="-91"/>
      <point x="241" y="-130" type="curve" smooth="yes"/>
      <point x="241" y="-182"/>
      <point x="280" y="-213"/>
    </contour>
  </outline>
</glyph>
<glyph name="De-cy.ss01" format="2">
  <advance width="818"/>
  <outline>
    <contour>
      <point x="134" y="0" type="line"/>
      <point x="154" y="0" type="line"/>
      <point x="154" y="414" type="line" smooth="yes"/>
      <point x="154" y="595"/>
      <point x="250" y="684"/>
      <point x="409" y="684" type="curve" smooth="yes"/>
      <point x="568" y="684"/>
      <point x="664" y="595"/>
      <point x="664" y="414" type="curve" smooth="yes"/>
      <point x="664" y="0" type="line"/>
      <point x="684" y="0" type="line"/>
      <point x="684" y="412" type="line" smooth="yes"/>
      <point x="684" y="606"/>
      <point x="576" y="703"/>
      <point x="409" y="703" type="curve" smooth="yes"/>
      <point x="242" y="703"/>
      <point x="134" y="606"/>
      <point x="134" y="412" type="curve" smooth="yes"/>
    </contour>
    <contour>
      <point x="44" y="-165" type="line"/>
      <point x="64" y="-165" type="line"/>
      <point x="65" y="0" type="line"/>
      <point x="753" y="0" type="line"/>
      <point x="753" y="-165" type="line"/>
      <point x="773" y="-165" type="line"/>
      <point x="773" y="19" type="line"/>
      <point x="45" y="19" type="line"/>
    </contour>
  </outline>
</glyph>
<glyph name="Eogonek.loclNAV.ss01" format="2">
  <advance width="614"/>
  <anchor x="336" y="0" name="bottom"/>
  <anchor x="563" y="0" name="ogonek"/>
  <anchor x="336" y="700" name="top"/>
  <anchor x="68" y="700" name="topleft"/>
  <outline>
    <contour>
      <point x="389" y="14" type="line"/>
      <point x="281" y="-22"/>
      <point x="250" y="-88"/>
      <point x="250" y="-132" type="curve" smooth="yes"/>
      <point x="250" y="-182"/>
      <point x="289" y="-213"/>
      <point x="341" y="-213" type="curve" smooth="yes"/>
      <point x="369" y="-213"/>
      <point x="393" y="-205"/>
      <point x="415" y="-186" type="curve"/>
      <point x="404" y="-171" type="line"/>
      <point x="388" y="-186"/>
      <point x="365" y="-194"/>
      <point x="341" y="-194" type="curve" smooth="yes"/>
      <point x="301" y="-194"/>
      <point x="270" y="-172"/>
      <point x="270" y="-132" type="curve" smooth="yes"/>
      <point x="270" y="-95"/>
      <point x="297" y="-26"/>
      <point x="422" y="5" type="curve" smooth="yes"/>
      <point x="494" y="23"/>
      <point x="547" y="44"/>
      <point x="590" y="92" type="curve"/>
      <point x="575" y="105" type="line"/>
      <point x="524" y="49"/>
      <point x="433" y="16"/>
      <point x="325" y="16" type="curve" smooth="yes"/>
      <point x="163" y="16"/>
      <point x="85" y="85"/>
      <point x="85" y="185" type="curve" smooth="yes"/>
      <point x="85" y="295"/>
      <point x="177" y="346"/>
      <point x="306" y="346" type="curve" smooth="yes"/>
      <point x="469" y="346" type="line"/>
      <point x="469" y="365" type="line"/>
      <point x="305" y="365" type="line" smooth="yes"/>
      <point x="187" y="365"/>
      <point x="115" y="422"/>
      <point x="115" y="517" type="curve" smooth="yes"/>
      <point x="115" y="614"/>
      <point x="191" y="684"/>
      <point x="338" y="684" type="curve" smooth="yes"/>
      <point x="417" y="684"/>
      <point x="487" y="664"/>
      <point x="546" y="627" type="curve"/>
      <point x="556" y="643" type="line"/>
      <point x="502" y="681"/>
      <point x="421" y="703"/>
      <point x="338" y="703" type="curve" smooth="yes"/>
      <point x="178" y="703"/>
      <point x="95" y="622"/>
      <point x="95" y="517" type="curve" smooth="yes"/>
      <point x="95" y="418"/>
      <point x="169" y="349"/>
      <point x="300" y="349" type="curve"/>
      <point x="296" y="362" type="line"/>
      <point x="165" y="362"/>
      <point x="65" y="301"/>
      <point x="65" y="184" type="curve" smooth="yes"/>
      <point x="65" y="76"/>
      <point x="152" y="-3"/>
      <point x="324" y="-3" type="curve" smooth="yes"/>
      <point x="342" y="-3"/>
      <point x="359" y="-2"/>
      <point x="374" y="-1" type="curve"/>
    </contour>
  </outline>
</glyph>
<glyph name="F.ss01" format="2">
  <advance width="595"/>
  <outline>
    <contour>
      <point x="127" y="0" type="line"/>
      <point x="147" y="0" type="line"/>
      <point x="147" y="479" type="line" smooth="yes"/>
      <point x="147" y="607"/>
      <point x="217" y="684"/>
      <point x="372" y="684" type="curve" smooth="yes"/>
      <point x="446" y="684"/>
      <point x="512" y="667"/>
      <point x="564" y="626" type="curve"/>
      <point x="577" y="642" type="line"/>
      <point x="524" y="684"/>
      <point x="452" y="703"/>
      <point x="372" y="703" type="curve" smooth="yes"/>
      <point x="205" y="703"/>
      <point x="127" y="613"/>
      <point x="127" y="482" type="curve" smooth="yes"/>
    </contour>
    <contour>
      <point x="143" y="326" type="line"/>
      <point x="510" y="326" type="line"/>
      <point x="510" y="345" type="line"/>
      <point x="143" y="345" type="line"/>
    </contour>
  </outline>
</glyph>
<glyph name="G.ss01" format="2">
  <advance width="774"/>
  <anchor x="402" y="0" name="bottom"/>
  <anchor x="402" y="700" name="top"/>
  <outline>
    <contour>
      <point x="408" y="-3" type="curve" smooth="yes"/>
      <point x="498" y="-3"/>
      <point x="590" y="29"/>
      <point x="657" y="99" type="curve"/>
      <point x="650" y="120" type="line"/>
      <point x="584" y="48"/>
      <point x="494" y="16"/>
      <point x="408" y="16" type="curve" smooth="yes"/>
      <point x="240" y="16"/>
      <point x="79" y="140"/>
      <point x="79" y="350" type="curve" smooth="yes"/>
      <point x="79" y="539"/>
      <point x="225" y="684"/>
      <point x="421" y="684" type="curve" smooth="yes"/>
      <point x="509" y="684"/>
      <point x="586" y="661"/>
      <point x="650" y="600" type="curve"/>
      <point x="662" y="614" type="line"/>
      <point x="602" y="674"/>
      <point x="516" y="703"/>
      <point x="421" y="703" type="curve" smooth="yes"/>
      <point x="213" y="703"/>
      <point x="59" y="552"/>
      <point x="59" y="350" type="curve" smooth="yes"/>
      <point x="59" y="123"/>
      <point x="233" y="-3"/>
    </contour>
    <contour>
      <point x="643" y="0" type="line"/>
      <point x="662" y="0" type="line"/>
      <point x="662" y="343" type="line"/>
      <point x="643" y="343" type="line"/>
      <point x="643" y="100" type="line"/>
      <point x="643" y="96" type="line"/>
    </contour>
  </outline>
</glyph>
<glyph name="Softsign-cy.ss01" format="2">
  <advance width="706"/>
  <outline>
    <contour>
      <point x="385" y="-3" type="curve" smooth="yes"/>
      <point x="550" y="-3"/>
      <point x="651" y="87"/>
      <point x="651" y="232" type="curve" smooth="yes"/>
      <point x="651" y="378"/>
      <point x="554" y="466"/>
      <point x="393" y="466" type="curve" smooth="yes"/>
      <point x="282" y="466"/>
      <point x="191" y="424"/>
      <point x="121" y="343" type="curve"/>
      <point x="137" y="331" type="line"/>
      <point x="202" y="407"/>
      <point x="288" y="446"/>
      <point x="393" y="446" type="curve" smooth="yes"/>
      <point x="542" y="446"/>
      <point x="631" y="367"/>
      <point x="631" y="232" type="curve" smooth="yes"/>
      <point x="631" y="99"/>
      <point x="539" y="17"/>
      <point x="385" y="17" type="curve" smooth="yes"/>
      <point x="230" y="17"/>
      <point x="139" y="100"/>
      <point x="139" y="238" type="curve" smooth="yes"/>
      <point x="139" y="700" type="line"/>
      <point x="119" y="700" type="line"/>
      <point x="119" y="238" type="line" smooth="yes"/>
      <point x="119" y="89"/>
      <point x="219" y="-3"/>
    </contour>
  </outline>
</glyph>
<glyph name="Udieresis.ss01.alt.BRACKET.133" format="2">
  <advance width="796"/>
  <outline>
    <contour>
      <point x="394" y="-3" type="curve" smooth="yes"/>
      <point x="519" y="-3"/>
      <point x="610" y="55"/>
      <point x="645" y="173" type="curve"/>
      <point x="643" y="176" type="line"/>
      <point x="643" y="0" type="line"/>
      <point x="663" y="0" type="line"/>
      <point x="663" y="700" type="line"/>
      <point x="643" y="700" type="line"/>
      <point x="643" y="299" type="line" smooth="yes"/>
      <point x="643" y="107"/>
      <point x="552" y="16"/>
      <point x="395" y="16" type="curve" smooth="yes"/>
      <point x="238" y="16"/>
      <point x="147" y="106"/>
      <point x="147" y="279" type="curve" smooth="yes"/>
      <point x="147" y="700" type="line"/>
      <point x="127" y="700" type="line"/>
      <point x="127" y="278" type="line" smooth="yes"/>
      <point x="127" y="95"/>
      <point x="230" y="-3"/>
    </contour>
    <contour>
      <point x="311" y="651" type="curve" smooth="yes"/>
      <point x="325" y="651"/>
      <point x="337" y="663"/>
      <point x="337" y="677" type="curve" smooth="yes"/>
      <point x="337" y="691"/>
      <point x="325" y="703"/>
      <point x="311" y="703" type="curve" smooth="yes"/>
      <point x="297" y="703"/>
      <point x="285" y="691"/>
      <point x="285" y="677" type="curve" smooth="yes"/>
      <point x="285" y="663"/>
      <point x="297" y="651"/>
    </contour>
    <contour>
      <point x="475" y="651" type="curve" smooth="yes"/>
      <point x="489" y="651"/>
      <point x="501" y="663"/>
      <point x="501" y="677" type="curve" smooth="yes"/>
      <point x="501" y="691"/>
      <point x="489" y="703"/>
      <point x="475" y="703" type="curve" smooth="yes"/>
      <point x="461" y="703"/>
      <point x="449" y="691"/>
      <point x="449" y="677" type="curve" smooth="yes"/>
      <point x="449" y="663"/>
      <point x="461" y="651"/>
    </contour>
  </outline>
</glyph>
<glyph name="Y.ss01" format="2">
  <advance width="789"/>
  <anchor x="652" y="0" name="bottom"/>
  <anchor x="392" y="700" name="top"/>
  <outline>
    <contour>
      <point x="392" y="-103" type="curve" smooth="yes"/>
      <point x="559" y="-103"/>
      <point x="662" y="-5"/>
      <point x="662" y="193" type="curve" smooth="yes"/>
      <point x="662" y="700" type="line"/>
      <point x="642" y="700" type="line"/>
      <point x="642" y="483" type="line" smooth="yes"/>
      <point x="642" y="291"/>
      <point x="551" y="200"/>
      <point x="392" y="200" type="curve" smooth="yes"/>
      <point x="233" y="200"/>
      <point x="142" y="290"/>
      <point x="142" y="463" type="curve" smooth="yes"/>
      <point x="142" y="700" type="line"/>
      <point x="122" y="700" type="line"/>
      <point x="122" y="462" type="line" smooth="yes"/>
      <point x="122" y="279"/>
      <point x="225" y="181"/>
      <point x="391" y="181" type="curve" smooth="yes"/>
      <point x="518" y="181"/>
      <point x="609" y="239"/>
      <point x="644" y="358" type="curve"/>
      <point x="642" y="360" type="line"/>
      <point x="642" y="194" type="line" smooth="yes"/>
      <point x="642" y="7"/>
      <point x="551" y="-84"/>
      <point x="393" y="-84" type="curve" smooth="yes"/>
      <point x="287" y="-84"/>
      <point x="209" y="-48"/>
      <point x="151" y="27" type="curve"/>
      <point x="136" y="13" type="line"/>
      <point x="193" y="-61"/>
      <point x="280" y="-103"/>
    </contour>
  </outline>
</glyph>
<glyph name="Z.ss01" format="2">
  <advance width="649"/>
  <anchor x="335" y="0" name="bottom"/>
  <anchor x="325" y="700" name="top"/>
  <outline>
    <contour>
      <point x="55" y="0" type="line"/>
      <point x="605" y="0" type="line"/>
      <point x="605" y="19" type="line"/>
      <point x="77" y="19" type="line"/>
      <point x="78" y="12" type="line"/>
      <point x="590" y="685" type="line"/>
      <point x="590" y="700" type="line"/>
      <point x="55" y="700" type="line"/>
      <point x="55" y="681" type="line"/>
      <point x="568" y="681" type="line"/>
      <point x="567" y="688" type="line"/>
      <point x="55" y="15" type="line"/>
    </contour>
    <contour>
      <point x="121" y="346" type="line"/>
      <point x="316" y="346" type="line"/>
      <point x="323" y="346" type="line"/>
      <point x="521" y="346" type="line"/>
      <point x="521" y="365" type="line"/>
      <point x="337" y="365" type="line"/>
      <point x="330" y="365" type="line"/>
      <point x="121" y="365" type="line"/>
    </contour>
  </outline>
</glyph>
<glyph name="a.sc" format="2">
  <advance width="563"/>
  <anchor x="281" y="0" name="bottom"/>
  <anchor x="554" y="0" name="ogonek"/>
  <anchor x="281" y="559" name="top"/>
  <anchor x="88" y="559" name="topleft"/>
  <outline>
    <contour>
      <point x="9" y="0" type="line"/>
      <point x="31" y="0" type="line"/>
      <point x="286" y="544" type="line"/>
      <point x="277" y="544" type="line"/>
      <point x="531" y="0" type="line"/>
      <point x="554" y="0" type="line"/>
      <point x="291" y="559" type="line"/>
      <point x="271" y="559" type="line"/>
    </contour>
    <contour>
      <point x="100" y="169" type="line"/>
      <point x="462" y="169" type="line"/>
      <point x="453" y="188" type="line"/>
      <point x="109" y="188" type="line"/>
    </contour>
  </outline>
</glyph>
<glyph name="ae.sc" format="2">
  <advance width="820"/>
  <anchor x="393" y="0" name="bottom"/>
  <anchor x="393" y="559" name="top"/>
  <outline>
    <contour>
      <point x="9" y="0" type="line"/>
      <point x="31" y="0" type="line"/>
      <point x="381" y="546" type="line"/>
      <point x="367" y="540" type="line"/>
      <point x="388" y="540" type="line"/>
      <point x="388" y="559" type="line"/>
      <point x="367" y="559" type="line"/>
    </contour>
    <contour>
      <point x="129" y="169" type="line"/>
      <point x="388" y="169" type="line"/>
      <point x="388" y="188" type="line"/>
      <point x="137" y="188" type="line"/>
    </contour>
    <contour>
      <point x="398" y="293" type="line"/>
      <point x="398" y="274" type="line"/>
      <point x="713" y="274" type="line"/>
      <point x="713" y="293" type="line"/>
    </contour>
    <contour>
      <point x="403" y="19" type="line"/>
      <point x="403" y="540" type="line"/>
      <point x="750" y="540" type="line"/>
      <point x="750" y="559" type="line"/>
      <point x="383" y="559" type="line"/>
      <point x="383" y="0" type="line"/>
      <point x="762" y="0" type="line"/>
      <point x="762" y="19" type="line"/>
    </contour>
  </outline>
</glyph>
<glyph name="aogonek.loclNAV.ss01" format="2">
  <advance width="671"/>
  <anchor x="317" y="0" name="bottom"/>
  <anchor x="556" y="0" name="ogonek"/>
  <anchor x="317" y="517" name="top"/>
  <outline>
    <contour>
      <point x="305" y="16" type="curve" smooth="yes"/>
      <point x="173" y="16"/>
      <point x="74" y="116"/>
      <point x="74" y="259" type="curve" smooth="yes"/>
      <point x="74" y="402"/>
      <point x="173" y="501"/>
      <point x="305" y="501" type="curve" smooth="yes"/>
      <point x="437" y="501"/>
      <point x="536" y="402"/>
      <point x="536" y="259" type="curve" smooth="yes"/>
      <point x="536" y="116"/>
      <point x="437" y="16"/>
    </contour>
    <contour>
      <point x="536" y="0" type="line"/>
      <point x="556" y="0" type="line"/>
      <point x="556" y="517" type="line"/>
      <point x="536" y="517" type="line"/>
      <point x="536" y="330" type="line"/>
      <point x="546" y="260" type="line"/>
      <point x="536" y="190" type="line"/>
    </contour>
    <contour>
      <point x="334" y="-213" type="curve" smooth="yes"/>
      <point x="362" y="-213"/>
      <point x="386" y="-205"/>
      <point x="408" y="-186" type="curve"/>
      <point x="397" y="-171" type="line"/>
      <point x="381" y="-186"/>
      <point x="358" y="-194"/>
      <point x="335" y="-194" type="curve" smooth="yes"/>
      <point x="294" y="-194"/>
      <point x="263" y="-173"/>
      <point x="263" y="-130" type="curve" smooth="yes"/>
      <point x="263" y="-91"/>
      <point x="278" y="-44"/>
      <point x="411" y="19" type="curve" smooth="yes"/>
      <point x="498" y="60"/>
      <point x="553" y="147"/>
      <point x="553" y="259" type="curve" smooth="yes"/>
      <point x="553" y="412"/>
      <point x="447" y="520"/>
      <point x="305" y="520" type="curve" smooth="yes"/>
      <point x="161" y="520"/>
      <point x="54" y="412"/>
      <point x="54" y="259" type="curve" smooth="yes"/>
      <point x="54" y="106"/>
      <point x="161" y="-3"/>
      <point x="305" y="-3" type="curve" smooth="yes"/>
      <point x="322" y="-3"/>
      <point x="338" y="-2"/>
      <point x="363" y="2" type="curve"/>
      <point x="374" y="16" type="line"/>
      <point x="264" y="-34"/>
      <point x="243" y="-89"/>
      <point x="243" y="-130" type="curve" smooth="yes"/>
      <point x="243" y="-182"/>
      <point x="282" y="-213"/>
    </contour>
  </outline>
</glyph>
<glyph name="brevecomb.loclVIET" format="2">
  <anchor x="300" y="517" name="_top"/>
  <anchor x="300" y="611" name="top"/>
  <outline>
    <contour>
      <point x="300" y="604" type="curve" smooth="yes"/>
      <point x="371" y="604"/>
      <point x="423" y="634"/>
      <point x="432" y="687" type="curve"/>
      <point x="413" y="687" type="line"/>
      <point x="404" y="645"/>
      <point x="361" y="623"/>
      <point x="300" y="623" type="curve" smooth="yes"/>
      <point x="239" y="623"/>
      <point x="196" y="645"/>
      <point x="187" y="687" type="curve"/>
      <point x="168" y="687" type="line"/>
      <point x="177" y="634"/>
      <point x="229" y="604"/>
    </contour>
  </outline>
</glyph>
<glyph name="breveinvertedcomb.narrow" format="2">
  <anchor x="300" y="517" name="_top"/>
  <anchor x="300" y="650" name="top"/>
  <outline>
    <contour>
      <point x="193" y="607" type="curve"/>
      <point x="212" y="607" type="line"/>
      <point x="212" y="665"/>
      <point x="248" y="701"/>
      <point x="300" y="701" type="curve" smooth="yes"/>
      <point x="352" y="701"/>
      <point x="388" y="665"/>
      <point x="388" y="607" type="curve"/>
      <point x="407" y="607" type="line"/>
      <point x="407" y="677"/>
      <point x="362" y="720"/>
      <point x="300" y="720" type="curve" smooth="yes"/>
      <point x="238" y="720"/>
      <point x="193" y="677"/>
    </contour>
  </outline>
</glyph>
<glyph name="caroncomb.alt" format="2">
  <anchor x="300" y="700" name="_topright"/>
  <outline>
    <contour>
      <point x="300" y="540" type="line"/>
      <point x="318" y="540" type="line"/>
      <point x="320" y="720" type="line"/>
      <point x="300" y="720" type="line"/>
    </contour>
  </outline>
</glyph>
<glyph name="che-cy.loclBGR" format="2">
  <advance width="581"/>
  <anchor x="440" y="0" name="bottomleft"/>
  <outline>
    <contour>
      <point x="450" y="280" type="curve"/>
      <point x="444" y="336" type="line"/>
      <point x="444" y="233"/>
      <point x="349" y="198"/>
      <point x="247" y="198" type="curve" smooth="yes"/>
      <point x="144" y="198"/>
      <point x="77" y="247"/>
      <point x="77" y="335" type="curve" smooth="yes"/>
      <point x="77" y="517" type="line"/>
      <point x="57" y="517" type="line"/>
      <point x="57" y="335" type="line" smooth="yes"/>
      <point x="57" y="232"/>
      <point x="135" y="180"/>
      <point x="247" y="180" type="curve" smooth="yes"/>
      <point x="350" y="180"/>
      <point x="425" y="213"/>
    </contour>
    <contour>
      <point x="444" y="0" type="line"/>
      <point x="464" y="0" type="line"/>
      <point x="464" y="517" type="line"/>
      <point x="444" y="517" type="line"/>
    </contour>
  </outline>
</glyph>
<glyph name="descTail-cy.case" format="2">
  <advance width="138"/>
  <anchor x="0" y="0" name="_bottomleft"/>
  <outline>
    <contour>
      <point x="40" y="-165" type="line"/>
      <point x="58" y="-165" type="line"/>
      <point x="118" y="19" type="line"/>
      <point x="0" y="19" type="line"/>
      <point x="0" y="0" type="line"/>
      <point x="107" y="0" type="line"/>
      <point x="93" y="9" type="line"/>
    </contour>
  </outline>
</glyph>
<glyph name="descTail-cy" format="2">
  <advance width="279"/>
  <anchor x="80" y="0" name="_bottomleft"/>
  <outline>
    <contour>
      <point x="123" y="-121" type="line"/>
      <point x="141" y="-121" type="line"/>
      <point x="188" y="18" type="line"/>
      <point x="80" y="18" type="line"/>
      <point x="80" y="0" type="line"/>
      <point x="176" y="0" type="line"/>
      <point x="164" y="8" type="line"/>
    </contour>
  </outline>
</glyph>
<glyph name="descender-cy.case" format="2">
  <advance width="300"/>
  <anchor x="49" y="0" name="_bottomleft"/>
  <outline>
    <contour>
      <point x="166" y="-165" type="line"/>
      <point x="186" y="-165" type="line"/>
      <point x="186" y="19" type="line"/>
      <point x="49" y="19" type="line"/>
      <point x="49" y="0" type="line"/>
      <point x="175" y="0" type="line"/>
      <point x="166" y="9" type="line"/>
    </contour>
  </outline>
</glyph>
<glyph name="eight.tf" format="2">
  <advance width="700"/>
  <guideline x="394" y="356" angle="0"/>
  <guideline x="394" y="375" angle="0"/>
  <outline>
    <contour>
      <point x="349" y="-3" type="curve" smooth="yes"/>
      <point x="525" y="-3"/>
      <point x="625" y="73"/>
      <point x="625" y="186" type="curve" smooth="yes"/>
      <point x="625" y="299"/>
      <point x="526" y="373"/>
      <point x="349" y="373" type="curve" smooth="yes"/>
      <point x="172" y="373"/>
      <point x="75" y="299"/>
      <point x="75" y="186" type="curve" smooth="yes"/>
      <point x="75" y="73"/>
      <point x="173" y="-3"/>
    </contour>
    <contour>
      <point x="349" y="16" type="curve" smooth="yes"/>
      <point x="185" y="16"/>
      <point x="95" y="85"/>
      <point x="95" y="186" type="curve" smooth="yes"/>
      <point x="95" y="287"/>
      <point x="185" y="356"/>
      <point x="349" y="356" type="curve" smooth="yes"/>
      <point x="513" y="356"/>
      <point x="605" y="287"/>
      <point x="605" y="186" type="curve" smooth="yes"/>
      <point x="605" y="85"/>
      <point x="513" y="16"/>
    </contour>
    <contour>
      <point x="349" y="358" type="curve" smooth="yes"/>
      <point x="513" y="358"/>
      <point x="600" y="428"/>
      <point x="600" y="530" type="curve" smooth="yes"/>
      <point x="600" y="633"/>
      <point x="504" y="703"/>
      <point x="349" y="703" type="curve" smooth="yes"/>
      <point x="194" y="703"/>
      <point x="100" y="633"/>
      <point x="100" y="530" type="curve" smooth="yes"/>
      <point x="100" y="428"/>
      <point x="185" y="358"/>
    </contour>
    <contour>
      <point x="349" y="375" type="curve" smooth="yes"/>
      <point x="201" y="375"/>
      <point x="120" y="438"/>
      <point x="120" y="530" type="curve" smooth="yes"/>
      <point x="120" y="621"/>
      <point x="205" y="684"/>
      <point x="349" y="684" type="curve" smooth="yes"/>
      <point x="493" y="684"/>
      <point x="580" y="621"/>
      <point x="580" y="529" type="curve" smooth="yes"/>
      <point x="580" y="438"/>
      <point x="497" y="375"/>
    </contour>
  </outline>
</glyph>
<glyph name="eogonek.loclNAV" format="2">
  <advance width="587"/>
  <anchor x="294" y="0" name="bottom"/>
  <anchor x="493" y="0" name="ogonek"/>
  <anchor x="294" y="517" name="top"/>
  <outline>
    <contour>
      <point x="368" y="17" type="line"/>
      <point x="256" y="-24"/>
      <point x="233" y="-86"/>
      <point x="233" y="-128" type="curve" smooth="yes"/>
      <point x="233" y="-183"/>
      <point x="272" y="-213"/>
      <point x="325" y="-213" type="curve" smooth="yes"/>
      <point x="352" y="-213"/>
      <point x="376" y="-205"/>
      <point x="398" y="-186" type="curve"/>
      <point x="387" y="-171" type="line"/>
      <point x="371" y="-186"/>
      <point x="348" y="-194"/>
      <point x="324" y="-194" type="curve" smooth="yes"/>
      <point x="284" y="-194"/>
      <point x="253" y="-173"/>
      <point x="253" y="-127" type="curve" smooth="yes"/>
      <point x="253" y="-79"/>
      <point x="287" y="-28"/>
      <point x="391" y="9" type="curve" smooth="yes"/>
      <point x="439" y="26"/>
      <point x="467" y="40"/>
      <point x="502" y="82" type="curve"/>
      <point x="488" y="96" type="line"/>
      <point x="447" y="42"/>
      <point x="381" y="16"/>
      <point x="312" y="16" type="curve" smooth="yes"/>
      <point x="175" y="16"/>
      <point x="73" y="116"/>
      <point x="73" y="259" type="curve" smooth="yes"/>
      <point x="73" y="263" type="line" smooth="yes"/>
      <point x="73" y="399"/>
      <point x="166" y="501"/>
      <point x="293" y="501" type="curve" smooth="yes"/>
      <point x="420" y="501"/>
      <point x="514" y="399"/>
      <point x="514" y="263" type="curve"/>
      <point x="522" y="278" type="line"/>
      <point x="65" y="278" type="line"/>
      <point x="65" y="259" type="line"/>
      <point x="533" y="259" type="line"/>
      <point x="533" y="261"/>
      <point x="533" y="262"/>
      <point x="533" y="264" type="curve" smooth="yes"/>
      <point x="533" y="414"/>
      <point x="429" y="520"/>
      <point x="293" y="520" type="curve" smooth="yes"/>
      <point x="156" y="520"/>
      <point x="54" y="412"/>
      <point x="54" y="259" type="curve" smooth="yes"/>
      <point x="54" y="106"/>
      <point x="163" y="-3"/>
      <point x="312" y="-3" type="curve" smooth="yes"/>
      <point x="325" y="-3"/>
      <point x="338" y="-2"/>
      <point x="351" y="0" type="curve"/>
    </contour>
  </outline>
</glyph>
<glyph name="eogonek.loclNAV.sc.ss01" format="2">
  <advance width="519"/>
  <anchor x="277" y="0" name="bottom"/>
  <anchor x="461" y="0" name="ogonek"/>
  <anchor x="277" y="559" name="top"/>
  <anchor x="58" y="559" name="topleft"/>
  <outline>
    <contour>
      <point x="341" y="17" type="line"/>
      <point x="233" y="-30"/>
      <point x="200" y="-89"/>
      <point x="200" y="-130" type="curve" smooth="yes"/>
      <point x="200" y="-182"/>
      <point x="239" y="-213"/>
      <point x="291" y="-213" type="curve" smooth="yes"/>
      <point x="319" y="-213"/>
      <point x="343" y="-205"/>
      <point x="365" y="-186" type="curve"/>
      <point x="354" y="-171" type="line"/>
      <point x="338" y="-186"/>
      <point x="315" y="-194"/>
      <point x="292" y="-194" type="curve" smooth="yes"/>
      <point x="251" y="-194"/>
      <point x="220" y="-173"/>
      <point x="220" y="-129" type="curve" smooth="yes"/>
      <point x="220" y="-78"/>
      <point x="268" y="-31"/>
      <point x="368" y="8" type="curve" smooth="yes"/>
      <point x="426" y="30"/>
      <point x="451" y="37"/>
      <point x="483" y="72" type="curve"/>
      <point x="470" y="87" type="line"/>
      <point x="429" y="42"/>
      <point x="355" y="16"/>
      <point x="268" y="16" type="curve" smooth="yes"/>
      <point x="138" y="16"/>
      <point x="76" y="70"/>
      <point x="76" y="149" type="curve" smooth="yes"/>
      <point x="76" y="235"/>
      <point x="149" y="275"/>
      <point x="252" y="275" type="curve" smooth="yes"/>
      <point x="385" y="275" type="line"/>
      <point x="385" y="293" type="line"/>
      <point x="252" y="293" type="line" smooth="yes"/>
      <point x="157" y="293"/>
      <point x="100" y="338"/>
      <point x="100" y="412" type="curve" smooth="yes"/>
      <point x="100" y="488"/>
      <point x="160" y="543"/>
      <point x="278" y="543" type="curve" smooth="yes"/>
      <point x="342" y="543"/>
      <point x="399" y="527"/>
      <point x="447" y="498" type="curve"/>
      <point x="456" y="514" type="line"/>
      <point x="412" y="545"/>
      <point x="346" y="562"/>
      <point x="279" y="562" type="curve" smooth="yes"/>
      <point x="148" y="562"/>
      <point x="80" y="497"/>
      <point x="80" y="413" type="curve" smooth="yes"/>
      <point x="80" y="333"/>
      <point x="141" y="278"/>
      <point x="246" y="278" type="curve"/>
      <point x="243" y="290" type="line"/>
      <point x="137" y="290"/>
      <point x="56" y="241"/>
      <point x="56" y="147" type="curve" smooth="yes"/>
      <point x="56" y="61"/>
      <point x="127" y="-3"/>
      <point x="267" y="-3" type="curve" smooth="yes"/>
      <point x="283" y="-3"/>
      <point x="298" y="-2"/>
      <point x="316" y="-1" type="curve"/>
    </contour>
  </outline>
</glyph>
<glyph name="eogonek.ss01" format="2">
  <advance width="588"/>
  <anchor x="298" y="0" name="bottom"/>
  <anchor x="298" y="517" name="top"/>
  <outline>
    <contour>
      <point x="421" y="-213" type="curve" smooth="yes"/>
      <point x="449" y="-213"/>
      <point x="473" y="-205"/>
      <point x="495" y="-186" type="curve"/>
      <point x="484" y="-171" type="line"/>
      <point x="468" y="-186"/>
      <point x="445" y="-194"/>
      <point x="422" y="-194" type="curve" smooth="yes"/>
      <point x="381" y="-194"/>
      <point x="350" y="-173"/>
      <point x="350" y="-129" type="curve" smooth="yes"/>
      <point x="350" y="-88"/>
      <point x="364" y="-50"/>
      <point x="468" y="47" type="curve" smooth="yes"/>
      <point x="482" y="60"/>
      <point x="494" y="70"/>
      <point x="504" y="82" type="curve"/>
      <point x="490" y="96" type="line"/>
      <point x="449" y="42"/>
      <point x="383" y="16"/>
      <point x="313" y="16" type="curve" smooth="yes"/>
      <point x="173" y="16"/>
      <point x="73" y="118"/>
      <point x="73" y="262" type="curve" smooth="yes"/>
      <point x="73" y="399"/>
      <point x="167" y="501"/>
      <point x="300" y="501" type="curve" smooth="yes"/>
      <point x="426" y="501"/>
      <point x="507" y="399"/>
      <point x="514" y="292" type="curve"/>
      <point x="523" y="306" type="line"/>
      <point x="66" y="216" type="line"/>
      <point x="72" y="198" type="line"/>
      <point x="534" y="289" type="line"/>
      <point x="525" y="414"/>
      <point x="434" y="520"/>
      <point x="300" y="520" type="curve" smooth="yes"/>
      <point x="156" y="520"/>
      <point x="54" y="412"/>
      <point x="54" y="259" type="curve" smooth="yes"/>
      <point x="54" y="106"/>
      <point x="164" y="-3"/>
      <point x="313" y="-3" type="curve" smooth="yes"/>
      <point x="354" y="-3"/>
      <point x="395" y="6"/>
      <point x="431" y="24" type="curve"/>
      <point x="423" y="25" type="line"/>
      <point x="346" y="-42"/>
      <point x="330" y="-90"/>
      <point x="330" y="-129" type="curve" smooth="yes"/>
      <point x="330" y="-182"/>
      <point x="369" y="-213"/>
    </contour>
  </outline>
</glyph>
<glyph name="er-cy.ss01" format="2">
  <advance width="652"/>
  <anchor x="339" y="0" name="bottom"/>
  <anchor x="339" y="517" name="top"/>
  <outline>
    <contour>
      <point x="338" y="520" type="curve" smooth="yes"/>
      <point x="194" y="520"/>
      <point x="91" y="411"/>
      <point x="91" y="258" type="curve" smooth="yes"/>
      <point x="91" y="-194" type="line"/>
      <point x="111" y="-194" type="line"/>
      <point x="111" y="180" type="line"/>
      <point x="103" y="179" type="line"/>
      <point x="134" y="65"/>
      <point x="222" y="-3"/>
      <point x="338" y="-3" type="curve" smooth="yes"/>
      <point x="484" y="-3"/>
      <point x="590" y="107"/>
      <point x="590" y="258" type="curve" smooth="yes"/>
      <point x="590" y="409"/>
      <point x="484" y="520"/>
    </contour>
    <contour>
      <point x="339" y="16" type="curve" smooth="yes"/>
      <point x="205" y="16"/>
      <point x="111" y="117"/>
      <point x="111" y="259" type="curve" smooth="yes"/>
      <point x="111" y="401"/>
      <point x="205" y="501"/>
      <point x="339" y="501" type="curve" smooth="yes"/>
      <point x="473" y="501"/>
      <point x="570" y="399"/>
      <point x="570" y="258" type="curve" smooth="yes"/>
      <point x="570" y="117"/>
      <point x="473" y="16"/>
    </contour>
  </outline>
</glyph>
<glyph name="four.osf" format="2">
  <advance width="644"/>
  <outline>
    <contour>
      <point x="46" y="108" type="line"/>
      <point x="627" y="108" type="line"/>
      <point x="627" y="127" type="line"/>
      <point x="57" y="127" type="line"/>
      <point x="70" y="123" type="line"/>
      <point x="464" y="600" type="line"/>
      <point x="440" y="600" type="line"/>
      <point x="46" y="123" type="line"/>
    </contour>
    <contour>
      <point x="451" y="-100" type="line"/>
      <point x="471" y="-100" type="line"/>
      <point x="471" y="310" type="line"/>
      <point x="451" y="310" type="line"/>
      <point x="451" y="127" type="line"/>
      <point x="451" y="108" type="line"/>
    </contour>
  </outline>
</glyph>
<glyph name="g.sc" format="2">
  <advance width="647"/>
  <anchor x="334" y="0" name="bottom"/>
  <anchor x="335" y="559" name="top"/>
  <outline>
    <contour>
      <point x="497" y="21"/>
      <point x="546" y="69" type="curve"/>
      <point x="534" y="85" type="line"/>
      <point x="485" y="35"/>
      <point x="420" y="17"/>
      <point x="350" y="17" type="curve" smooth="yes"/>
      <point x="193" y="17"/>
      <point x="76" y="131"/>
      <point x="76" y="280" type="curve" smooth="yes"/>
      <point x="76" y="429"/>
      <point x="193" y="543"/>
      <point x="350" y="543" type="curve" smooth="yes"/>
      <point x="421" y="543"/>
      <point x="482" y="524"/>
      <point x="534" y="476" type="curve"/>
      <point x="546" y="490" type="line"/>
      <point x="497" y="538"/>
      <point x="427" y="562"/>
      <point x="350" y="562" type="curve" smooth="yes"/>
      <point x="181" y="562"/>
      <point x="56" y="441"/>
      <point x="56" y="280" type="curve" smooth="yes"/>
      <point x="56" y="118"/>
      <point x="181" y="-3"/>
      <point x="350" y="-3" type="curve" smooth="yes"/>
      <point x="427" y="-3"/>
    </contour>
    <contour>
      <point x="527" y="69" type="line"/>
      <point x="546" y="69" type="line"/>
      <point x="546" y="275" type="line"/>
      <point x="527" y="275" type="line"/>
    </contour>
  </outline>
</glyph>
<glyph name="i.sc.ss01" format="2">
  <advance width="402"/>
  <anchor x="201" y="0" name="bottom"/>
  <anchor x="211" y="0" name="ogonek"/>
  <anchor x="201" y="559" name="top"/>
  <anchor x="34" y="559" name="topleft"/>
  <outline>
    <contour>
      <point x="191" y="8" type="line"/>
      <point x="211" y="8" type="line"/>
      <point x="211" y="551" type="line"/>
      <point x="191" y="551" type="line"/>
    </contour>
    <contour>
      <point x="68" y="0" type="line"/>
      <point x="334" y="0" type="line"/>
      <point x="334" y="19" type="line"/>
      <point x="68" y="19" type="line"/>
    </contour>
    <contour>
      <point x="68" y="540" type="line"/>
      <point x="334" y="540" type="line"/>
      <point x="334" y="559" type="line"/>
      <point x="68" y="559" type="line"/>
    </contour>
  </outline>
</glyph>
<glyph name="m.sc.ss01" format="2">
  <advance width="1047"/>
  <anchor x="526" y="0" name="bottom"/>
  <anchor x="526" y="559" name="top"/>
  <outline>
    <contour>
      <point x="726" y="562" type="curve" smooth="yes"/>
      <point x="625" y="562"/>
      <point x="552" y="517"/>
      <point x="526" y="421" type="curve"/>
      <point x="530" y="421" type="line"/>
      <point x="507" y="515"/>
      <point x="433" y="562"/>
      <point x="331" y="562" type="curve" smooth="yes"/>
      <point x="238" y="562"/>
      <point x="170" y="523"/>
      <point x="140" y="440" type="curve"/>
      <point x="142" y="438" type="line"/>
      <point x="142" y="559" type="line"/>
      <point x="122" y="559" type="line"/>
      <point x="122" y="0" type="line"/>
      <point x="142" y="0" type="line"/>
      <point x="142" y="336" type="line" smooth="yes"/>
      <point x="142" y="479"/>
      <point x="211" y="543"/>
      <point x="329" y="543" type="curve" smooth="yes"/>
      <point x="447" y="543"/>
      <point x="516" y="480"/>
      <point x="516" y="352" type="curve" smooth="yes"/>
      <point x="516" y="0" type="line"/>
      <point x="536" y="0" type="line"/>
      <point x="536" y="336" type="line" smooth="yes"/>
      <point x="536" y="479"/>
      <point x="605" y="543"/>
      <point x="723" y="543" type="curve" smooth="yes"/>
      <point x="842" y="543"/>
      <point x="911" y="480"/>
      <point x="911" y="352" type="curve" smooth="yes"/>
      <point x="911" y="0" type="line"/>
      <point x="931" y="0" type="line"/>
      <point x="931" y="353" type="line" smooth="yes"/>
      <point x="931" y="491"/>
      <point x="850" y="562"/>
    </contour>
  </outline>
</glyph>
<glyph name="macroncomb.loclVIET" format="2">
  <anchor x="300" y="517" name="_top"/>
  <anchor x="300" y="630" name="top"/>
  <outline>
    <contour>
      <point x="164" y="637" type="line"/>
      <point x="436" y="637" type="line"/>
      <point x="436" y="657" type="line"/>
      <point x="164" y="657" type="line"/>
    </contour>
  </outline>
</glyph>
<glyph name="numero.ss01" format="2">
  <advance width="1180"/>
  <outline>
    <contour>
      <point x="809" y="272" type="line"/>
      <point x="1095" y="272" type="line"/>
      <point x="1095" y="291" type="line"/>
      <point x="809" y="291" type="line"/>
    </contour>
    <contour>
      <point x="952" y="391" type="curve" smooth="yes"/>
      <point x="1046" y="391"/>
      <point x="1115" y="456"/>
      <point x="1115" y="547" type="curve" smooth="yes"/>
      <point x="1115" y="638"/>
      <point x="1046" y="703"/>
      <point x="952" y="703" type="curve" smooth="yes"/>
      <point x="858" y="703"/>
      <point x="789" y="638"/>
      <point x="789" y="547" type="curve" smooth="yes"/>
      <point x="789" y="456"/>
      <point x="858" y="391"/>
    </contour>
    <contour>
      <point x="952" y="409" type="curve" smooth="yes"/>
      <point x="870" y="409"/>
      <point x="808" y="465"/>
      <point x="808" y="547" type="curve" smooth="yes"/>
      <point x="808" y="629"/>
      <point x="870" y="685"/>
      <point x="952" y="685" type="curve" smooth="yes"/>
      <point x="1034" y="685"/>
      <point x="1096" y="629"/>
      <point x="1096" y="547" type="curve" smooth="yes"/>
      <point x="1096" y="465"/>
      <point x="1034" y="409"/>
    </contour>
    <contour>
      <point x="404" y="703" type="curve" smooth="yes"/>
      <point x="277" y="703"/>
      <point x="186" y="645"/>
      <point x="151" y="527" type="curve"/>
      <point x="153" y="524" type="line"/>
      <point x="153" y="700" type="line"/>
      <point x="133" y="700" type="line"/>
      <point x="133" y="0" type="line"/>
      <point x="153" y="0" type="line"/>
      <point x="153" y="401" type="line" smooth="yes"/>
      <point x="153" y="593"/>
      <point x="244" y="684"/>
      <point x="403" y="684" type="curve" smooth="yes"/>
      <point x="562" y="684"/>
      <point x="653" y="594"/>
      <point x="653" y="421" type="curve" smooth="yes"/>
      <point x="653" y="0" type="line"/>
      <point x="673" y="0" type="line"/>
      <point x="673" y="422" type="line" smooth="yes"/>
      <point x="673" y="605"/>
      <point x="570" y="703"/>
    </contour>
  </outline>
</glyph>
<glyph name="o.sc" format="2">
  <advance width="694"/>
  <anchor x="347" y="0" name="bottom"/>
  <anchor x="347" y="280" name="center"/>
  <anchor x="390" y="0" name="ogonek"/>
  <anchor x="347" y="559" name="top"/>
  <anchor x="56" y="559" name="topleft"/>
  <anchor x="547" y="559" name="topright"/>
  <outline>
    <contour>
      <point x="347" y="-3" type="curve" smooth="yes"/>
      <point x="513" y="-3"/>
      <point x="638" y="118"/>
      <point x="638" y="280" type="curve" smooth="yes"/>
      <point x="638" y="441"/>
      <point x="513" y="562"/>
      <point x="347" y="562" type="curve" smooth="yes"/>
      <point x="181" y="562"/>
      <point x="56" y="441"/>
      <point x="56" y="280" type="curve" smooth="yes"/>
      <point x="56" y="118"/>
      <point x="181" y="-3"/>
    </contour>
    <contour>
      <point x="347" y="16" type="curve" smooth="yes"/>
      <point x="193" y="16"/>
      <point x="76" y="128"/>
      <point x="76" y="279" type="curve" smooth="yes"/>
      <point x="76" y="430"/>
      <point x="193" y="543"/>
      <point x="347" y="543" type="curve" smooth="yes"/>
      <point x="502" y="543"/>
      <point x="618" y="430"/>
      <point x="618" y="279" type="curve" smooth="yes"/>
      <point x="618" y="128"/>
      <point x="502" y="16"/>
    </contour>
  </outline>
</glyph>
<glyph name="one.osf" format="2">
  <advance width="342"/>
  <outline>
    <contour>
      <point x="190" y="0" type="line"/>
      <point x="209" y="0" type="line"/>
      <point x="209" y="600" type="line"/>
      <point x="10" y="600" type="line"/>
      <point x="10" y="581" type="line"/>
      <point x="199" y="581" type="line"/>
      <point x="190" y="589" type="line"/>
    </contour>
  </outline>
</glyph>
<glyph name="one.tf" format="2">
  <advance width="700"/>
  <outline>
    <contour>
      <point x="387" y="10" type="line"/>
      <point x="387" y="700" type="line"/>
      <point x="168" y="700" type="line"/>
      <point x="168" y="681" type="line"/>
      <point x="377" y="681" type="line"/>
      <point x="368" y="689" type="line"/>
      <point x="368" y="10" type="line"/>
      <point x="377" y="19" type="line"/>
      <point x="158" y="19" type="line"/>
      <point x="158" y="0" type="line"/>
      <point x="577" y="0" type="line"/>
      <point x="577" y="19" type="line"/>
      <point x="378" y="19" type="line"/>
    </contour>
  </outline>
</glyph>
<glyph name="six.dnom" format="2">
  <advance width="430"/>
  <outline>
    <contour>
      <point x="234" y="-2" type="curve" smooth="yes"/>
      <point x="323" y="-2"/>
      <point x="384" y="48"/>
      <point x="384" y="121" type="curve" smooth="yes"/>
      <point x="384" y="193"/>
      <point x="324" y="243"/>
      <point x="231" y="243" type="curve" smooth="yes"/>
      <point x="149" y="243"/>
      <point x="81" y="200"/>
      <point x="77" y="126" type="curve"/>
      <point x="83" y="128" type="line"/>
      <point x="74" y="156"/>
      <point x="72" y="190"/>
      <point x="72" y="207" type="curve" smooth="yes"/>
      <point x="72" y="333"/>
      <point x="148" y="399"/>
      <point x="258" y="399" type="curve" smooth="yes"/>
      <point x="289" y="399"/>
      <point x="320" y="394"/>
      <point x="346" y="381" type="curve"/>
      <point x="354" y="397" type="line"/>
      <point x="328" y="411"/>
      <point x="291" y="417"/>
      <point x="258" y="417" type="curve" smooth="yes"/>
      <point x="136" y="417"/>
      <point x="52" y="342"/>
      <point x="52" y="206" type="curve" smooth="yes"/>
      <point x="52" y="73"/>
      <point x="116" y="-2"/>
    </contour>
    <contour>
      <point x="234" y="15" type="curve" smooth="yes"/>
      <point x="135" y="15"/>
      <point x="91" y="73"/>
      <point x="91" y="120" type="curve" smooth="yes"/>
      <point x="91" y="182"/>
      <point x="150" y="226"/>
      <point x="229" y="226" type="curve" smooth="yes"/>
      <point x="316" y="226"/>
      <point x="365" y="182"/>
      <point x="365" y="120" type="curve" smooth="yes"/>
      <point x="365" y="58"/>
      <point x="314" y="15"/>
    </contour>
  </outline>
</glyph>
<glyph name="softsign-cy.loclBGR" format="2">
  <advance width="544"/>
  <outline>
    <contour>
      <point x="299" y="-3" type="curve" smooth="yes"/>
      <point x="430" y="-3"/>
      <point x="499" y="84"/>
      <point x="499" y="184" type="curve" smooth="yes"/>
      <point x="499" y="283"/>
      <point x="431" y="360"/>
      <point x="300" y="360" type="curve" smooth="yes"/>
      <point x="214" y="360"/>
      <point x="152" y="322"/>
      <point x="122" y="268" type="curve"/>
      <point x="122" y="517" type="line"/>
      <point x="102" y="517" type="line"/>
      <point x="102" y="183" type="line" smooth="yes"/>
      <point x="102" y="72"/>
      <point x="177" y="-3"/>
    </contour>
    <contour>
      <point x="301" y="16" type="curve" smooth="yes"/>
      <point x="190" y="16"/>
      <point x="122" y="83"/>
      <point x="122" y="184" type="curve" smooth="yes"/>
      <point x="122" y="236" type="line"/>
      <point x="152" y="301"/>
      <point x="214" y="341"/>
      <point x="300" y="341" type="curve" smooth="yes"/>
      <point x="419" y="341"/>
      <point x="479" y="272"/>
      <point x="479" y="183" type="curve" smooth="yes"/>
      <point x="479" y="94"/>
      <point x="420" y="16"/>
    </contour>
  </outline>
</glyph>
<glyph name="t.ss01" format="2">
  <advance width="374"/>
  <anchor x="227" y="0" name="bottom"/>
  <anchor x="157" y="307" name="center"/>
  <anchor x="119" y="630" name="top"/>
  <anchor x="234" y="742" name="topright"/>
  <outline>
    <contour>
      <point x="234" y="-3" type="curve" smooth="yes"/>
      <point x="271" y="-3"/>
      <point x="311" y="9"/>
      <point x="335" y="34" type="curve"/>
      <point x="321" y="48" type="line"/>
      <point x="299" y="27"/>
      <point x="268" y="16"/>
      <point x="235" y="16" type="curve" smooth="yes"/>
      <point x="165" y="16"/>
      <point x="129" y="56"/>
      <point x="129" y="129" type="curve" smooth="yes"/>
      <point x="129" y="630" type="line"/>
      <point x="109" y="630" type="line"/>
      <point x="109" y="124" type="line" smooth="yes"/>
      <point x="109" y="48"/>
      <point x="152" y="-3"/>
    </contour>
    <contour>
      <point x="119" y="498" type="line"/>
      <point x="304" y="498" type="line"/>
      <point x="304" y="517" type="line"/>
      <point x="119" y="517" type="line"/>
    </contour>
  </outline>
</glyph>
<glyph name="two.dnom" format="2">
  <advance width="430"/>
  <outline>
    <contour>
      <point x="52" y="0" type="line"/>
      <point x="368" y="0" type="line"/>
      <point x="368" y="18" type="line"/>
      <point x="64" y="18" type="line"/>
      <point x="75" y="11" type="line"/>
      <point x="266" y="182" type="line" smooth="yes"/>
      <point x="328" y="238"/>
      <point x="345" y="270"/>
      <point x="345" y="311" type="curve" smooth="yes"/>
      <point x="345" y="369"/>
      <point x="298" y="417"/>
      <point x="191" y="417" type="curve" smooth="yes"/>
      <point x="126" y="417"/>
      <point x="74" y="399"/>
      <point x="40" y="363" type="curve"/>
      <point x="53" y="351" type="line"/>
      <point x="85" y="384"/>
      <point x="133" y="399"/>
      <point x="191" y="399" type="curve" smooth="yes"/>
      <point x="285" y="399"/>
      <point x="326" y="359"/>
      <point x="326" y="310" type="curve" smooth="yes"/>
      <point x="326" y="275"/>
      <point x="311" y="246"/>
      <point x="252" y="193" type="curve" smooth="yes"/>
      <point x="52" y="14" type="line"/>
    </contour>
  </outline>
</glyph>
<glyph name="u.sc.ss01" format="2">
  <advance width="678"/>
  <anchor x="336" y="0" name="bottom"/>
  <anchor x="556" y="0" name="ogonek"/>
  <anchor x="336" y="559" name="top"/>
  <anchor x="549" y="559" name="topright"/>
  <outline>
    <contour>
      <point x="334" y="-3" type="curve" smooth="yes"/>
      <point x="437" y="-3"/>
      <point x="509" y="44"/>
      <point x="538" y="138" type="curve"/>
      <point x="536" y="141" type="line"/>
      <point x="536" y="0" type="line"/>
      <point x="556" y="0" type="line"/>
      <point x="556" y="559" type="line"/>
      <point x="536" y="559" type="line"/>
      <point x="536" y="239" type="line" smooth="yes"/>
      <point x="536" y="88"/>
      <point x="463" y="16"/>
      <point x="336" y="16" type="curve" smooth="yes"/>
      <point x="209" y="16"/>
      <point x="136" y="87"/>
      <point x="136" y="223" type="curve" smooth="yes"/>
      <point x="136" y="559" type="line"/>
      <point x="116" y="559" type="line"/>
      <point x="116" y="222" type="line" smooth="yes"/>
      <point x="116" y="76"/>
      <point x="199" y="-3"/>
    </contour>
  </outline>
</glyph>
<glyph name="w.sc" format="2">
  <advance width="905"/>
  <anchor x="453" y="0" name="bottom"/>
  <anchor x="453" y="559" name="top"/>
  <outline>
    <contour>
      <point x="244" y="0" type="line"/>
      <point x="265" y="0" type="line"/>
      <point x="455" y="537" type="line"/>
      <point x="450" y="537" type="line"/>
      <point x="641" y="0" type="line"/>
      <point x="661" y="0" type="line"/>
      <point x="855" y="559" type="line"/>
      <point x="834" y="559" type="line"/>
      <point x="646" y="15" type="line"/>
      <point x="656" y="15" type="line"/>
      <point x="463" y="559" type="line"/>
      <point x="443" y="559" type="line"/>
      <point x="249" y="15" type="line"/>
      <point x="260" y="15" type="line"/>
      <point x="72" y="559" type="line"/>
      <point x="50" y="559" type="line"/>
    </contour>
  </outline>
</glyph>
<glyph name="yeru-cy.ss01" format="2">
  <advance width="740"/>
  <anchor x="370" y="517" name="top"/>
  <outline>
    <contour>
      <point x="299" y="-3" type="curve" smooth="yes"/>
      <point x="430" y="-3"/>
      <point x="500" y="84"/>
      <point x="500" y="184" type="curve" smooth="yes"/>
      <point x="500" y="283"/>
      <point x="431" y="360"/>
      <point x="301" y="360" type="curve"/>
      <point x="214" y="360"/>
      <point x="152" y="322"/>
      <point x="122" y="268" type="curve"/>
      <point x="122" y="517" type="line"/>
      <point x="102" y="517" type="line"/>
      <point x="102" y="183" type="line" smooth="yes"/>
      <point x="102" y="72"/>
      <point x="177" y="-3"/>
    </contour>
    <contour>
      <point x="301" y="16" type="curve" smooth="yes"/>
      <point x="190" y="16"/>
      <point x="122" y="83"/>
      <point x="122" y="184" type="curve" smooth="yes"/>
      <point x="122" y="236" type="line"/>
      <point x="152" y="301"/>
      <point x="215" y="341"/>
      <point x="300" y="341" type="curve"/>
      <point x="419" y="341"/>
      <point x="480" y="272"/>
      <point x="480" y="183" type="curve" smooth="yes"/>
      <point x="480" y="94"/>
      <point x="420" y="16"/>
    </contour>
    <contour>
      <point x="603" y="0" type="line"/>
      <point x="623" y="0" type="line"/>
      <point x="623" y="517" type="line"/>
      <point x="603" y="517" type="line"/>
    </contour>
  </outline>
</glyph>
